<svg width="16" fill="#212C42" height="16" viewBox="0 0 16 16" version="1.1" xmlns="http://www.w3.org/2000/svg" xmlns:xlink="http://www.w3.org/1999/xlink">
<g id="aggregatedCanvas">
<g id="aggregated-g-01">
<g id="aggregatedicon/dark/status pack code/agregation">
<g id="aggregatedAgreg/box">
<g id="aggregatedCombined Shape">
<path fill-rule="evenodd" clip-rule="evenodd" d="M 10 7.00027L 14 7.00027C 14.553 7.00027 15 6.55228 15 6.00027C 15 5.44827 14.553 5.00027 14 5.00027L 12.414 5.00027L 15.707 1.70731C 16.098 1.31631 16.098 0.684235 15.707 0.293243C 15.316 -0.0977478 14.684 -0.0977478 14.293 0.293243L 11 3.58633L 11 2.00027C 11 1.44827 10.553 1.00027 10 1.00027C 9.44699 1.00027 9 1.44827 9 2.00027L 9 6.00027C 9 6.55228 9.44699 7.00027 10 7.00027ZM 12.4141 11.0003L 14.0001 11.0003C 14.5531 11.0003 15.0001 10.5523 15.0001 10.0003C 15.0001 9.44827 14.5531 9.00027 14.0001 9.00027L 10.0001 9.00027C 9.44708 9.00027 9.00009 9.44827 9.00009 10.0003L 9.00009 14.0003C 9.00009 14.5523 9.44708 15.0003 10.0001 15.0003C 10.5531 15.0003 11.0001 14.5523 11.0001 14.0003L 11.0001 12.4142L 14.2931 15.7073C 14.4881 15.9023 14.7441 16.0003 15.0001 16.0003C 15.2561 16.0003 15.5121 15.9023 15.7071 15.7073C 16.0981 15.3163 16.0981 14.6842 15.7071 14.2932L 12.4141 11.0003ZM 6 2.00027L 3 2.00027L 2 2.00027L 2 4.00027L 3 4.00027L 6 4.00027L 7 4.00027C 7.55301 4.00027 8 4.4473 8 5.00027C 8 5.55325 7.55301 6.00027 7 6.00027L 6 6.00027L 3 6.00027L 2 6.00027L 2 14.0003L 3 14.0003L 6 14.0003L 7 14.0003C 7.55301 14.0003 8 14.4473 8 15.0003C 8 15.5533 7.55301 16.0003 7 16.0003L 6 16.0003L 3 16.0003L 1.00101 16.0003C 0.479004 16.0003 0 15.5823 0 14.9993L 0 1.00027C 0 0.448273 0.446991 0.000274658 1 0.000274658L 3 0.000274658L 6 0.000274658L 7 0.000274658C 7.55301 0.000274658 8 0.447296 8 1.00027C 8 1.55325 7.55301 2.00027 7 2.00027L 6 2.00027Z" transform="translate(0 -0.000244141)"/>
</g>
</g>
</g>
</g>
</g>
</svg>

