<svg xmlns="http://www.w3.org/2000/svg" width="16" height="16" viewBox="0 0 16 16">
    <g fill="none" fill-rule="evenodd">
        <path d="M0 0h16v16H0z"/>
        <path fill="#212C42" d="M6 2a1 1 0 1 1 0-2h2a1 1 0 1 1 0 2H6zm1 12a1 1 0 1 1 0 2H1a1 1 0 0 1-1-1V1a1 1 0 0 1 1-1h2a1 1 0 1 1 0 2H2v12h5zM5 6a1 1 0 1 1 0-2h4a1 1 0 1 1 0 2H5zm2 2a1 1 0 1 1 0 2H5a1 1 0 1 1 0-2h2zm7-7v6a1 1 0 1 1-2 0V2h-1a1 1 0 1 1 0-2h2a1 1 0 0 1 1 1zm-.586 11l2.293 2.293a.999.999 0 1 1-1.414 1.414L12 13.414V14a1 1 0 1 1-2 0v-3a1 1 0 0 1 1-1h3a1 1 0 1 1 0 2h-.586z"/>
    </g>
</svg>
