<svg width="16" height="16" fill="#212C42" viewBox="0 0 16 16" version="1.1" xmlns="http://www.w3.org/2000/svg" xmlns:xlink="http://www.w3.org/1999/xlink">
<g id="arrows-to-centerCanvas">
<g id="arrows-to-center-g-1">
<g id="arrows-to-centericon/dark/goods movement/agregation">
<g id="arrows-to-centerGroup 3">
<g id="arrows-to-centerFill 1">
<path fill-rule="evenodd" clip-rule="evenodd" d="M 1 7.00025L 5 7.00025C 5.553 7.00025 6 6.55225 6 6.00025C 6 5.44825 5.553 5.00025 5 5.00025L 3.414 5.00025L 6.707 1.70725C 7.098 1.31625 7.098 0.68425 6.707 0.29325C 6.316 -0.09775 5.684 -0.09775 5.293 0.29325L 2 3.58625L 2 2.00025C 2 1.44825 1.553 1.00025 1 1.00025C 0.447 1.00025 0 1.44825 0 2.00025L 0 6.00025C 0 6.55225 0.447 7.00025 1 7.00025" transform="translate(9 -0.000244141)" />
</g>
<g id="arrows-to-centerFill 10">
<path fill-rule="evenodd" clip-rule="evenodd" d="M 3.414 2L 5 2C 5.553 2 6 1.552 6 1C 6 0.448 5.553 0 5 0L 1 0C 0.447 0 0 0.448 0 1L 0 5C 0 5.552 0.447 6 1 6C 1.553 6 2 5.552 2 5L 2 3.414L 5.293 6.707C 5.488 6.902 5.744 7 6 7C 6.256 7 6.512 6.902 6.707 6.707C 7.098 6.316 7.098 5.684 6.707 5.293L 3.414 2Z" transform="translate(9.00012 9)"/>
</g>
<g id="arrows-to-centerFill 4">
<path fill-rule="evenodd" clip-rule="evenodd" d="M 6.00225 1.00025L 6.00025 1.00025C 5.44825 1.00025 5.00125 1.44725 5.00025 1.99825L 4.99725 3.58325L 1.70725 0.29325C 1.31625 -0.09775 0.68425 -0.09775 0.29325 0.29325C -0.09775 0.68425 -0.09775 1.31625 0.29325 1.70725L 3.58625 5.00025L 2.00025 5.00025C 1.44725 5.00025 1.00025 5.44825 1.00025 6.00025C 1.00025 6.55225 1.44725 7.00025 2.00025 7.00025L 5.99325 7.00025C 6.54525 7.00025 6.99225 6.55325 6.99325 6.00225L 7.00025 2.00225C 7.00125 1.44925 6.55425 1.00125 6.00225 1.00025" transform="translate(-0.000244141 -0.000244141)" />
</g>
<g id="arrows-to-centerFill 7">
<path fill-rule="evenodd" clip-rule="evenodd" d="M 5.99325 0L 2.00025 0C 1.44725 0 1.00025 0.448 1.00025 1C 1.00025 1.552 1.44725 2 2.00025 2L 3.58625 2L 0.29325 5.293C -0.09775 5.684 -0.09775 6.316 0.29325 6.707C 0.48825 6.902 0.74425 7 1.00025 7C 1.25625 7 1.51225 6.902 1.70725 6.707L 4.99725 3.417L 5.00025 5.002C 5.00125 5.553 5.44825 6 6.00025 6L 6.00225 6C 6.55425 5.999 7.00125 5.551 7.00025 4.998L 6.99325 0.998C 6.99225 0.447 6.54525 0 5.99325 0" transform="translate(-6.10352e-05 9)"/>
</g>
</g>
</g>
</g>
</g>
</svg>

