<svg width="16" height="16" fill="#212C42" viewBox="0 0 16 16" version="1.1" xmlns="http://www.w3.org/2000/svg" xmlns:xlink="http://www.w3.org/1999/xlink">
<g id="arrows-from-centerFill 1">
<path fill-rule="evenodd" clip-rule="evenodd" d="M 6 7C 5.744 7 5.488 6.902 5.293 6.707L 2.003 3.417L 2 5.002C 1.999 5.553 1.552 6 1 6L 0.998002 6C 0.446002 5.999 -0.000998325 5.551 1.67458e-06 4.998L 0.00700167 0.998C 0.00800167 0.447 0.455002 0 1.007 0L 5 0C 5.553 0 6 0.448 6 1C 6 1.552 5.553 2 5 2L 3.414 2L 6.707 5.293C 7.098 5.684 7.098 6.316 6.707 6.707C 6.512 6.902 6.256 7 6 7L 6 7ZM 10 7C 9.74401 7 9.48801 6.902 9.29301 6.707C 8.90201 6.316 8.90201 5.684 9.29301 5.293L 12.586 2L 11 2C 10.447 2 10 1.552 10 1C 10 0.448 10.447 0 11 0L 15 0C 15.553 0 16 0.448 16 1L 16 5C 16 5.552 15.553 6 15 6C 14.447 6 14 5.552 14 5L 14 3.414L 10.707 6.707C 10.512 6.902 10.256 7 10 7L 10 7ZM 5 16L 1.007 16C 0.455002 16 0.00800167 15.553 0.00700167 15.002L 1.67458e-06 11.002C -0.000998325 10.449 0.446002 10.001 0.998002 10L 1 10C 1.552 10 1.999 10.447 2 10.998L 2.003 12.583L 5.293 9.29301C 5.684 8.90201 6.316 8.90201 6.707 9.29301C 7.098 9.68401 7.098 10.316 6.707 10.707L 3.414 14L 5 14C 5.553 14 6 14.448 6 15C 6 15.552 5.553 16 5 16L 5 16ZM 15 16L 11 16C 10.447 16 10 15.552 10 15C 10 14.448 10.447 14 11 14L 12.586 14L 9.29301 10.707C 8.90201 10.316 8.90201 9.68401 9.29301 9.29301C 9.68401 8.90201 10.316 8.90201 10.707 9.29301L 14 12.586L 14 11C 14 10.448 14.447 10 15 10C 15.553 10 16 10.448 16 11L 16 15C 16 15.552 15.553 16 15 16L 15 16Z" />
</g>

</svg>

