<svg width="16" fill="#212C42" height="16" viewBox="0 0 16 16" version="1.1" xmlns="http://www.w3.org/2000/svg" xmlns:xlink="http://www.w3.org/1999/xlink">

<g id="box-on-loaderbox">
<mask id="box-on-loadermask0"  maskUnits="userSpaceOnUse" x="0" y="0" width="16" height="16">
<g id="box-on-loaderClip 4">
<path fill-rule="evenodd" clip-rule="evenodd" d="M 0 16L 16 16L 16 0L 0 0L 0 16Z" fill="white"/>
</g>
</mask>
<g mask="url(#box-on-loadermask0)">
<g id="box-on-loaderCombined Shape">
<path fill-rule="evenodd" clip-rule="evenodd" d="M 11 10L 2 10L 2 2L 11 2L 11 10ZM 4 12L 1 12C 0.447021 12 0 11.552 0 11L 0 1.00098C 0 0.41803 0.479004 0 1.00098 0L 4 0L 4.15601 0L 4.99902 0L 5 0L 12 0C 12.553 0 13 0.447021 13 1L 13 11C 13 11.553 12.553 12 12 12L 5 12L 4 12ZM 14 3C 14 2.44702 14.447 2 15 2C 15.553 2 16 2.44702 16 3L 16 14C 16 14.553 15.553 15 15 15L 13 15C 13 15.552 12.553 16 12 16C 11.447 16 11 15.552 11 15L 2 15C 2 15.552 1.55298 16 1 16C 0.447021 16 0 15.552 0 15L 0 14C 0 13.447 0.447021 13 1 13L 14 13L 14 3Z" />
</g>
</g>
</g>

</svg>

