<svg width="16" fill="#212C42" height="16" viewBox="0 0 16 16" version="1.1" xmlns="http://www.w3.org/2000/svg" xmlns:xlink="http://www.w3.org/1999/xlink">
<g id="cancel-g-01">
<path fill-rule="evenodd" clip-rule="evenodd" d="M 2 8C 2 11.309 4.69101 14 8 14C 11.309 14 14 11.309 14 8C 14 4.69104 11.309 2 8 2C 4.69101 2 2 4.69104 2 8ZM 0 8C 0 3.58203 3.582 0 8 0C 12.418 0 16 3.58203 16 8C 16 12.418 12.418 16 8 16C 3.582 16 0 12.418 0 8ZM 4 8C 4 7.448 4.44699 7 5 7L 11 7C 11.553 7 12 7.448 12 8C 12 8.552 11.553 9 11 9L 5 9C 4.44699 9 4 8.552 4 8Z" />
</g>

</svg>

