<svg width="18" fill="#212C42" height="16" viewBox="0 0 18 16" version="1.1" xmlns="http://www.w3.org/2000/svg" xmlns:xlink="http://www.w3.org/1999/xlink">
<g id="cart">
<path fill-rule="evenodd" clip-rule="evenodd" d="M 4.98735 7.99965L 3.3936 3.99965L 14.4638 3.99965L 13.0475 7.99965L 4.98735 7.99965ZM 14.8218 9.31569L 16.9468 3.31569C 17.1317 2.79164 16.8299 2.22566 16.2743 2.05067C 16.1627 2.01564 16.0501 2.01167 15.9385 2.01167L 15.9385 1.99965L 2.59673 1.99965L 2.05803 0.648634C 1.85192 0.131666 1.24205 -0.128344 0.689562 0.0626355C 0.140245 0.257643 -0.138136 0.833632 0.0679798 1.35066L 3.25548 9.35066C 3.41167 9.74068 3.80797 9.99965 4.25102 9.99965L 12.751 9.99965L 13.8135 9.99965C 14.2704 9.99965 14.6763 9.72468 14.8218 9.31569ZM 5.3131 13.9996C 5.3131 15.1037 4.36107 15.9996 3.1881 15.9996C 2.01512 15.9996 1.0631 15.1037 1.0631 13.9996C 1.0631 12.8956 2.01512 11.9996 3.1881 11.9996C 4.36107 11.9996 5.3131 12.8956 5.3131 13.9996ZM 12.7506 15.9996C 13.9236 15.9996 14.8756 15.1037 14.8756 13.9996C 14.8756 12.8956 13.9236 11.9996 12.7506 11.9996C 11.5776 11.9996 10.6256 12.8956 10.6256 13.9996C 10.6256 15.1037 11.5776 15.9996 12.7506 15.9996Z" transform="translate(-0.000183105 -0.00012207)" />
</g>
</svg>

