<svg width="15" height="16" viewBox="0 0 15 16" xmlns="http://www.w3.org/2000/svg" fill="#0884FF">
    <path d="M1.3 15.009C1.1 15.009 0.8 14.909 0.6 14.809C0.2 14.609 0 14.109 0 13.709V13.409L1.9 7.60902L0 1.30902C0 0.809017 0.2 0.409017 0.6 0.209017C1 0.00901699 1.5 -0.090983 1.9 0.109017L14.2 5.80902C14.7 6.00902 15 6.50902 15 7.00902C15 7.50902 14.7 8.00902 14.3 8.20902L2 14.809C1.8 14.909 1.6 15.009 1.3 15.009ZM2.5 2.70902L4 7.50902L2.5 12.209L12 7.10902L2.5 2.70902Z" />
    <path d="M4.8 2H1C0.4 2 -9.53674e-08 1.6 -9.53674e-08 1C-9.53674e-08 0.4 0.4 0 1 0H4.7C5.3 0 5.7 0.4 5.7 1C5.7 1.6 5.3 2 4.8 2Z" transform="translate(2.09998 6.50903)"/>
</svg>
