<svg width="16" height="16" fill="#212C42" viewBox="0 0 16 16" version="1.1" xmlns="http://www.w3.org/2000/svg" xmlns:xlink="http://www.w3.org/1999/xlink">
<g id="check-bso-returnCanvas">
<g id="check-bso-returnFill 18">
<path fill-rule="evenodd" clip-rule="evenodd" d="M 16 1.364L 16 1.365L 16 15C 16 15.553 15.553 16 15 16L 1 16C 0.447 16 0 15.553 0 15L 0 1.365L 0 1.364L 0 1.269C 0.007 1.265 0.014 1.261 0.021 1.257C 0.045 1.041 0.126 0.83 0.293 0.664C 0.684 0.277 1.316 0.277 1.707 0.664L 2.574 1.523C 2.92 1.867 3.381 2.042 3.871 2.014C 4.359 1.987 4.797 1.764 5.104 1.385C 5.816 0.501 6.87 0 8 0C 9.13 0 10.184 0.501 10.889 1.375C 11.203 1.764 11.641 1.987 12.129 2.014C 12.615 2.046 13.08 1.867 13.426 1.523L 14.293 0.664C 14.684 0.277 15.316 0.277 15.707 0.664C 15.858 0.814 15.934 1.003 15.967 1.197C 15.978 1.196 15.989 1.197 16 1.196L 16 1.364ZM 2 14L 14 14L 14 3.52902C 13.398 3.85802 12.718 4.03402 12.018 3.99402C 10.969 3.93602 9.99 3.43702 9.334 2.62202C 8.672 1.80302 7.32 1.81102 6.672 2.61402C 6.01 3.43702 5.031 3.93602 3.982 3.99402C 3.914 3.99802 3.846 4.00002 3.777 4.00002C 3.149 4.00002 2.543 3.82502 2 3.52902L 2 14Z"/>
</g>
<g id="check-bso-returnGroup 33">
<g id="check-bso-returnFill 20">
<path fill-rule="evenodd" clip-rule="evenodd" d="M 3.41688 2.12288L 3.83288 1.70888C 4.22488 1.31888 4.22588 0.685881 3.83588 0.294881C 3.44688 -0.0961191 2.81388 -0.0991191 2.42188 0.290881L 0.294878 2.40688C -0.097122 2.79688 -0.098122 3.42988 0.290878 3.82088L 2.40688 5.94788C 2.79588 6.33988 3.42888 6.34188 3.82088 5.95188C 4.21288 5.56188 4.21388 4.92988 3.82488 4.53788L 3.41188 4.12188L 6.65388 4.13088C 6.92988 4.13188 7.18088 4.01988 7.36188 3.83988C 7.54288 3.65988 7.65588 3.40988 7.65688 3.13388C 7.65788 2.58088 7.21188 2.13288 6.65988 2.13188L 3.41688 2.12288Z" transform="translate(4 6)" />
</g>
</g>
</g>

</svg>

