<svg width="16" height="16" fill="#212C42" viewBox="0 0 16 16" version="1.1" xmlns="http://www.w3.org/2000/svg" xmlns:xlink="http://www.w3.org/1999/xlink">

<g id="checking">
<path fill-rule="evenodd" clip-rule="evenodd" d="M 4 14L 3 14L 2 14L 2 2L 3 2C 3.55298 2 4 1.55298 4 1C 4 0.447021 3.55298 0 3 0L 1 0C 0.447021 0 0 0.447021 0 1L 0 15C 0 15.553 0.447021 16 1 16L 2 16L 3 16L 4 16C 4.55298 16 5 15.553 5 15C 5 14.447 4.55298 14 4 14ZM 6 2L 8 2C 8.55298 2 9 1.55298 9 1C 9 0.447021 8.55298 0 8 0L 6 0C 5.44702 0 5 0.447021 5 1C 5 1.55298 5.44702 2 6 2ZM 12 2L 11 2C 10.447 2 10 1.55298 10 1C 10 0.447021 10.447 0 11 0L 13 0C 13.553 0 14 0.447021 14 1L 14 3L 14 4C 14 4.552 13.553 5 13 5C 12.447 5 12 4.552 12 4L 12 2ZM 12.7061 13.776C 11.9561 14.0549 11.1421 14.026 10.4111 13.693C 10.0101 13.51 9.66809 13.24 9.3891 12.9149C 9.74207 12.76 9.99005 12.4099 9.99005 12C 9.99005 11.4469 9.54205 11 8.99005 11L 7.05005 11C 7.03827 10.9993 7.02814 10.9995 7.01746 10.9998L 7.00006 11C 6.72107 11 6.47009 11.105 6.28906 11.2889C 6.10406 11.47 6.00006 11.7209 6.00006 12L 5.99982 12.0176L 5.99976 12.0199C 5.99963 12.0299 5.99945 12.0396 6.00006 12.0499L 6.00006 13.99C 6.00006 14.542 6.44708 14.99 7.00006 14.99C 7.44708 14.99 7.81207 14.692 7.94006 14.287C 8.88806 15.344 10.2421 15.965 11.6641 15.965C 12.2431 15.965 12.8311 15.864 13.4051 15.6499C 13.9231 15.4569 14.1851 14.881 13.9931 14.364C 13.8 13.8459 13.2231 13.583 12.7061 13.776ZM 14.064 8.69177C 14.198 8.29773 14.561 8.00977 15 8.00977C 15.553 8.00977 16 8.45776 16 9.00977L 16 10.9498C 16.0007 10.9617 16.0004 10.9718 16.0002 10.9824L 16 10.9998C 16 11.2788 15.896 11.5298 15.711 11.7108C 15.53 11.8948 15.279 11.9998 15 11.9998L 14.9826 12C 14.9719 12.0002 14.9618 12.0004 14.95 11.9998L 13.01 11.9998C 12.458 11.9998 12.01 11.5527 12.01 10.9998C 12.01 10.5837 12.264 10.2288 12.625 10.0778C 12.344 9.74377 11.997 9.46777 11.589 9.28076C 10.858 8.94678 10.044 8.91882 9.29401 9.19775C 8.77698 9.39075 8.19995 9.12781 8.00696 8.61084C 7.81396 8.09277 8.07697 7.51685 8.59497 7.32373C 9.16901 7.11084 9.75696 7.00879 10.336 7.00879C 11.76 7.00879 13.117 7.63184 14.064 8.69177Z" />
</g>

</svg>

