<svg width="16"  fill="#212C42" height="16" viewBox="0 0 16 16" version="1.1" xmlns="http://www.w3.org/2000/svg" xmlns:xlink="http://www.w3.org/1999/xlink">

<g id="check">
    <g id="Combined Shape">
        <path fill-rule="evenodd" clip-rule="evenodd" d="M 2 14L 2 3.52899C 2.543 3.82501 3.14899 4 3.77701 4C 3.84601 4 3.914 3.99799 3.98199 3.99402C 5.03101 3.93604 6.01001 3.43701 6.672 2.61401C 7.32001 1.81104 8.672 1.80304 9.33401 2.62201C 9.98999 3.43701 10.969 3.93604 12.018 3.99402C 12.718 4.034 13.398 3.85803 14 3.52899L 14 14L 2 14ZM 16 1.36401L 16 1.19598C 15.9945 1.19653 15.989 1.19653 15.9835 1.19653C 15.978 1.19653 15.9725 1.19653 15.967 1.19702C 15.934 1.00299 15.858 0.814026 15.707 0.664001C 15.316 0.276978 14.684 0.276978 14.293 0.664001L 13.426 1.52301C 13.08 1.867 12.615 2.04602 12.129 2.01398C 11.641 1.987 11.203 1.76398 10.889 1.375C 10.184 0.500977 9.13 0 8 0C 6.87 0 5.81601 0.500977 5.104 1.38501C 4.797 1.76398 4.35901 1.987 3.871 2.01398C 3.38101 2.04199 2.92001 1.867 2.57401 1.52301L 1.707 0.664001C 1.31601 0.276978 0.68399 0.276978 0.292999 0.664001C 0.126007 0.830017 0.0450134 1.04102 0.0209961 1.25702L 0 1.26898L 0 1.36401L 0 1.36499L 0 15C 0 15.553 0.446991 16 1 16L 15 16C 15.553 16 16 15.553 16 15L 16 1.36499L 16 1.36401ZM 5 6C 4.44699 6 4 6.44702 4 7C 4 7.55298 4.44699 8 5 8L 11 8C 11.553 8 12 7.55298 12 7C 12 6.44702 11.553 6 11 6L 5 6ZM 4 10C 4 9.44702 4.44699 9 5 9L 11 9C 11.553 9 12 9.44702 12 10C 12 10.553 11.553 11 11 11L 5 11C 4.44699 11 4 10.553 4 10Z"/>
    </g>
</g>

</svg>

