<svg width="16" height="16" fill="#212C42" viewBox="0 0 16 16" version="1.1" xmlns="http://www.w3.org/2000/svg" xmlns:xlink="http://www.w3.org/1999/xlink">
<g id="closed-arrowCanvas">
<g id="closed-arrow-g-01">
<g id="closed-arrowicon/dark/code status/turnover">
<g id="closed-arrowPage 1">
<mask id="closed-arrowmask0"  maskUnits="userSpaceOnUse" x="0" y="0" width="16" height="16">
<g id="closed-arrowClip 2">
<path fill-rule="evenodd" clip-rule="evenodd" d="M 0 8L 0 0L 16 0L 16 16L 8 16L 0 16L 0 8Z" fill="white"/>
</g>
</mask>
<g mask="url(#closed-arrowmask0)">
<g id="closed-arrowFill 1">
<path fill-rule="evenodd" clip-rule="evenodd" d="M 3 14.0002L 13 14.0002C 14.654 14.0002 16 12.6542 16 11.0002L 16 6.00025C 16 4.34625 14.654 3.00025 13 3.00025C 12.447 3.00025 12 3.44825 12 4.00025C 12 4.55225 12.447 5.00025 13 5.00025C 13.552 5.00025 14 5.44925 14 6.00025L 14 11.0002C 14 11.5512 13.552 12.0002 13 12.0002L 3 12.0002C 2.448 12.0002 2 11.5512 2 11.0002L 2 6.00025C 2 5.44925 2.448 5.00025 3 5.00025L 7.586 5.00025L 6.293 6.29325C 5.902 6.68425 5.902 7.31625 6.293 7.70725C 6.684 8.09825 7.316 8.09825 7.707 7.70725L 10.707 4.70725C 11.098 4.31625 11.098 3.68425 10.707 3.29325L 7.707 0.29325C 7.316 -0.09775 6.684 -0.09775 6.293 0.29325C 5.902 0.68425 5.902 1.31625 6.293 1.70725L 7.586 3.00025L 3 3.00025C 1.346 3.00025 0 4.34625 0 6.00025L 0 11.0002C 0 12.6542 1.346 14.0002 3 14.0002" transform="translate(0 0.999756)" />
</g>
</g>
</g>
</g>
</g>
</g>
</svg>

