<svg width="16" height="16" fill="#212C42" viewBox="0 0 16 16" version="1.1" xmlns="http://www.w3.org/2000/svg" xmlns:xlink="http://www.w3.org/1999/xlink">
<g id="code-invalidCode delete">
<mask id="code-invalidmask0"  maskUnits="userSpaceOnUse" x="0" y="0" width="16" height="16">
<g id="code-invalidClip 4">
<path fill-rule="evenodd" clip-rule="evenodd" d="M 0 16L 16 16L 16 0L 0 0L 0 16Z" fill="white"/>
</g>
</mask>
<g mask="url(#code-invalidmask0)">
<g id="code-invalidCombined Shape">
<path fill-rule="evenodd" clip-rule="evenodd" d="M 14 5L 11 5L 11 2L 14 2L 14 5ZM 10 0L 15 0C 15.553 0 16 0.447998 16 1L 16 6C 16 6.552 15.553 7 15 7L 10 7C 9.44699 7 9 6.552 9 6L 9 1C 9 0.447998 9.44699 0 10 0ZM 12.9999 14.4141L 12.2929 15.1211C 11.9039 15.5101 11.2679 15.5101 10.8789 15.1211C 10.4889 14.7321 10.4889 14.0961 10.8789 13.7071L 11.5859 13.0001L 10.8789 12.2931C 10.4889 11.9041 10.4889 11.2671 10.8789 10.8781C 11.2679 10.4901 11.9039 10.4901 12.2929 10.8781L 12.9999 11.5861L 13.7069 10.8781C 14.0959 10.4901 14.7329 10.4901 15.1209 10.8781C 15.5099 11.2671 15.5099 11.9041 15.1209 12.2931L 14.4139 13.0001L 15.1209 13.7071C 15.5099 14.0961 15.5099 14.7321 15.1209 15.1211C 14.7329 15.5101 14.0959 15.5101 13.7069 15.1211L 12.9999 14.4141ZM 2 5L 5 5L 5 2L 2 2L 2 5ZM 1 0L 6 0C 6.55301 0 7 0.447998 7 1L 7 6C 7 6.552 6.55301 7 6 7L 1 7C 0.446991 7 0 6.552 0 6L 0 1C 0 0.447998 0.446991 0 1 0ZM 5 14L 2 14L 2 11L 5 11L 5 14ZM 6 9L 1 9C 0.447 9 0 9.448 0 10L 0 15C 0 15.552 0.447 16 1 16L 6 16C 6.553 16 7 15.552 7 15L 7 10C 7 9.448 6.553 9 6 9L 6 9Z" />
</g>
</g>
</g>

</svg>

