<svg width="16" height="17" fill="#212C42" viewBox="0 0 16 17" version="1.1" xmlns="http://www.w3.org/2000/svg" xmlns:xlink="http://www.w3.org/1999/xlink">

    <g id="Combined Shape">
        <path fill-rule="evenodd" clip-rule="evenodd" d="M 15.719 1.6405L 14.359 3.00049L 15.719 4.36047C 16.093 4.73352 16.093 5.34656 15.719 5.72046C 15.345 6.09351 14.733 6.09351 14.359 5.72046L 13 4.36047L 11.64 5.72046C 11.266 6.09351 10.654 6.09351 10.28 5.72046C 9.90602 5.34656 9.90602 4.73352 10.28 4.36047L 11.64 3.00049L 10.28 1.6405C 9.90602 1.26648 9.90602 0.654541 10.28 0.280518C 10.654 -0.0935059 11.266 -0.0935059 11.64 0.280518L 13 1.6405L 14.359 0.280518C 14.733 -0.0935059 15.345 -0.0935059 15.719 0.280518C 16.093 0.654541 16.093 1.26648 15.719 1.6405ZM 2.00935 13.9519C 2.00233 13.9639 1.99037 13.9839 2.01435 14.0049L 11.9804 14.0009C 10.8573 11.9939 9.17835 11.0009 6.99934 11.0009C 4.82832 11.0009 3.15034 11.9928 2.00935 13.9519ZM 10.1644 8.87183C 9.93232 9.06189 9.68336 9.22681 9.42335 9.37085C 11.3604 9.98389 12.7753 11.3148 13.7213 12.9508C 14.5034 14.3048 13.5443 16.0009 11.9804 16.0009L 2.01936 16.0009C 0.452341 16.0009 -0.506643 14.2988 0.281321 12.9448C 1.23738 11.3038 2.66737 9.97388 4.60536 9.36389L 4.60835 9.36389C 3.06233 8.51282 1.99934 6.88684 1.99934 5.00085C 1.99934 2.2439 4.24336 0.000854492 6.99934 0.000854492C 7.39637 0.000854492 7.79133 0.046875 8.17433 0.139893C 8.71137 0.268799 9.04133 0.808838 8.91133 1.34583C 8.78333 1.88391 8.24336 2.21289 7.70533 2.08386C 7.47633 2.02881 7.23835 2.00085 6.99934 2.00085C 5.34535 2.00085 3.99934 3.34583 3.99934 5.00085C 3.99934 6.65491 5.34535 8.00085 6.99934 8.00085C 7.70136 8.00085 8.35737 7.76685 8.89735 7.32385C 9.32636 6.97388 9.95436 7.03687 10.3043 7.46387C 10.6553 7.89185 10.5913 8.52185 10.1644 8.87183Z" transform="translate(0.000244141 0.999512)" />
    </g>

</svg>

