<svg width="16" fill="#212C42" height="16" viewBox="0 0 16 16" version="1.1" xmlns="http://www.w3.org/2000/svg" xmlns:xlink="http://www.w3.org/1999/xlink">
<g id="disaggregated">
<path fill-rule="evenodd" clip-rule="evenodd" d="M 3 2L 6 2L 7 2C 7.55301 2 8 1.55298 8 1C 8 0.447021 7.55301 0 7 0L 6 0L 3 0L 1 0C 0.446991 0 0 0.447998 0 1L 0 14.999C 0 15.582 0.479004 16 1.00101 16L 3 16L 6 16L 7 16C 7.55301 16 8 15.553 8 15C 8 14.447 7.55301 14 7 14L 6 14L 3 14L 2 14L 2 6L 3 6L 6 6L 7 6C 7.55301 6 8 5.55298 8 5C 8 4.44702 7.55301 4 7 4L 6 4L 3 4L 2 4L 2 2L 3 2ZM 10 7C 10.256 7 10.512 6.90198 10.707 6.70703L 13.997 3.41699L 14 5.00195C 14.001 5.55298 14.448 6 15 6L 15.002 6C 15.554 5.99902 16.001 5.55103 16 4.99805L 15.993 0.998047C 15.992 0.447021 15.545 0 14.993 0L 11 0C 10.447 0 10 0.447998 10 1C 10 1.552 10.447 2 11 2L 12.586 2L 9.293 5.29297C 8.90201 5.68396 8.90201 6.31604 9.293 6.70703C 9.48801 6.90198 9.74402 7 10 7ZM 15 10L 15.002 10C 15.554 10.001 16.001 10.449 16 11.002L 15.993 15.002C 15.992 15.553 15.545 16 14.993 16L 11 16C 10.447 16 10 15.552 10 15C 10 14.448 10.447 14 11 14L 12.586 14L 9.293 10.707C 8.90201 10.316 8.90201 9.68396 9.293 9.29297C 9.68402 8.90198 10.316 8.90198 10.707 9.29297L 13.997 12.583L 14 10.998C 14.001 10.447 14.448 10 15 10Z" />
</g>
</svg>

