<svg width="16" fill="#212C42" height="16" viewBox="0 0 16 16" version="1.1" xmlns="http://www.w3.org/2000/svg" xmlns:xlink="http://www.w3.org/1999/xlink">
<g id="doc-aggregation">
<path fill-rule="evenodd" clip-rule="evenodd" d="M 4 14L 5 14L 7 14C 7.55301 14 8 14.447 8 15C 8 15.553 7.55301 16 7 16L 5 16L 4 16L 1 16C 0.446991 16 0 15.553 0 15L 0 1C 0 0.447021 0.446991 0 1 0L 3 0C 3.55301 0 4 0.447021 4 1C 4 1.55298 3.55301 2 3 2L 2 2L 2 14L 4 14ZM 8 2L 6 2C 5.44699 2 5 1.55298 5 1C 5 0.447021 5.44699 0 6 0L 8 0C 8.552 0 9 0.447021 9 1C 9 1.55298 8.552 2 8 2ZM 5 6L 9 6C 9.552 6 10 5.55298 10 5C 10 4.44702 9.552 4 9 4L 5 4C 4.44699 4 4 4.44702 4 5C 4 5.55298 4.44699 6 5 6ZM 5 8L 7 8C 7.552 8 8 8.44702 8 9C 8 9.55298 7.552 10 7 10L 5 10C 4.44699 10 4 9.55298 4 9C 4 8.44702 4.44699 8 5 8ZM 14 1C 14 0.447021 13.553 0 13 0L 11 0C 10.447 0 10 0.447021 10 1C 10 1.55298 10.447 2 11 2L 12 2L 12 5L 12 7C 12 7.552 12.447 8 13 8C 13.553 8 14 7.552 14 7L 14 6L 14 1ZM 14.0001 12L 13.4141 12L 15.7071 14.293C 16.0981 14.684 16.0981 15.316 15.7071 15.707C 15.5121 15.902 15.2561 16 15.0001 16C 14.7441 16 14.4881 15.902 14.2931 15.707L 12.0001 13.414L 12.0001 14C 12.0001 14.552 11.5531 15 11.0001 15C 10.4471 15 10.0001 14.552 10.0001 14L 10.0001 11C 10.0001 10.448 10.4471 10 11.0001 10L 14.0001 10C 14.5531 10 15.0001 10.448 15.0001 11C 15.0001 11.552 14.5531 12 14.0001 12Z" />
</g>
</svg>

