<svg width="16" height="16" fill="#1A99F4" viewBox="0 0 16 16" version="1.1" xmlns="http://www.w3.org/2000/svg" xmlns:xlink="http://www.w3.org/1999/xlink">
    <g id="download-icon/blue/download">
        <path id="download-Fill 1" fill-rule="evenodd" clip-rule="evenodd" d="M 3.41418 8L 6.00018 10.586L 8.58618 8L 8.00019 8C 7.44818 8 7.00018 7.552 7.00018 7L 7.00018 2L 5.00018 2L 5.00018 7C 5.00018 7.552 4.55218 8 4.00018 8L 3.41418 8ZM 6.00019 13C 5.74419 13 5.48819 12.902 5.29319 12.707L 0.293189 7.707C 0.00718925 7.421 -0.0788107 6.991 0.0761893 6.617C 0.231189 6.244 0.596189 6 1.00019 6L 3.00019 6L 3.00019 1C 3.00019 0.448 3.44819 0 4.00019 0L 8.00019 0C 8.55219 0 9.00019 0.448 9.00019 1L 9.00019 6L 11.0002 6C 11.4042 6 11.7692 6.244 11.9242 6.617C 12.0792 6.991 11.9932 7.421 11.7072 7.707L 6.70719 12.707C 6.51219 12.902 6.25619 13 6.00019 13Z" transform="translate(1.99988 0)" />
        <path id="download-Fill 3" fill-rule="evenodd" clip-rule="evenodd" d="M 15 5L 1 5C 0.448 5 0 4.552 0 4L 0 1C 0 0.448 0.448 0 1 0C 1.552 0 2 0.448 2 1L 2 3L 14 3L 14 1C 14 0.448 14.448 0 15 0C 15.552 0 16 0.448 16 1L 16 4C 16 4.552 15.552 5 15 5Z" transform="translate(0 11)"/>
    </g>
</svg>
