<svg width="17" height="17" fill="#212C42" viewBox="0 0 17 17" version="1.1" xmlns="http://www.w3.org/2000/svg" xmlns:xlink="http://www.w3.org/1999/xlink">

<g id="edit-filled-blankGroup 6">
<g id="edit-filled-blankGroup 2">
<g id="edit-filled-blankFill 22">
<path fill-rule="evenodd" clip-rule="evenodd" d="M 4 1L 4 6L 4 7C 4 7.552 3.553 8 3 8C 2.447 8 2 7.552 2 7L 2 5L 2 2L 1 2C 0.447 2 0 1.553 0 1C 0 0.447 0.447 0 1 0L 3 0C 3.553 0 4 0.447 4 1" transform="translate(10 0.346924)" />
</g>
<g id="edit-filled-blankFill 24">
<path fill-rule="evenodd" clip-rule="evenodd" d="M 1 2C 0.447 2 0 1.553 0 1C 0 0.447 0.447 0 1 0L 5 0C 5.552 0 6 0.447 6 1C 6 1.553 5.552 2 5 2L 1 2Z" transform="translate(4 4.34692)" />
</g>
<g id="edit-filled-blankFill 26">
<path fill-rule="evenodd" clip-rule="evenodd" d="M 6 14C 6.553 14 7 14.447 7 15C 7 15.553 6.553 16 6 16L 5 16L 4 16L 1 16C 0.447 16 0 15.553 0 15L 0 1C 0 0.447 0.447 0 1 0L 3 0C 3.553 0 4 0.447 4 1C 4 1.553 3.553 2 3 2L 2 2L 2 14L 4 14L 5 14L 6 14Z" transform="translate(0 0.346924)" />
</g>
<g id="edit-filled-blankFill 28">
<path fill-rule="evenodd" clip-rule="evenodd" d="M 1 2C 0.447 2 0 1.553 0 1C 0 0.447 0.447 0 1 0L 3 0C 3.552 0 4 0.447 4 1C 4 1.553 3.552 2 3 2L 1 2Z" transform="translate(5 0.346924)" />
</g>
<g id="edit-filled-blankFill 30">
<path fill-rule="evenodd" clip-rule="evenodd" d="M 1 2C 0.447 2 0 1.553 0 1C 0 0.447 0.447 0 1 0L 5 0C 5.552 0 6 0.447 6 1C 6 1.553 5.552 2 5 2L 1 2Z" transform="translate(4 8.34692)" />
</g>
<g id="edit-filled-blankFill 32">
<path fill-rule="evenodd" clip-rule="evenodd" d="M 1.488 2.419L 2.112 1.795C 2.523 1.384 2.523 0.719 2.112 0.308C 1.906 0.103 1.637 0 1.368 0C 1.099 0 0.829 0.103 0.624 0.308L 0 0.932L 1.488 2.419Z" transform="translate(13.6287 10.277)" />
</g>
<g id="edit-filled-blankFill 34">
<path fill-rule="evenodd" clip-rule="evenodd" d="M 4.40865 1.487L 2.92165 0L 2.02265 0.898L 2.02265 0.9L 0.34865 2.574C 0.32565 2.598 0.30765 2.629 0.30165 2.662L 0.0036495 4.217C -0.0083505 4.276 0.0096495 4.337 0.0516495 4.379C 0.0936495 4.421 0.154649 4.439 0.212649 4.427L 1.75965 4.102C 1.79265 4.095 1.82365 4.078 1.84765 4.054L 4.30565 1.596L 4.30265 1.593L 4.40865 1.487Z" transform="translate(10.0005 11.916)" />
</g>
</g>
</g>

</svg>

