<svg width="16" height="16" fill="#212C42" viewBox="0 0 16 16" version="1.1" xmlns="http://www.w3.org/2000/svg" xmlns:xlink="http://www.w3.org/1999/xlink">
<g id="emittedicon/dark/code status/emitted">
<g id="emittedEmit">
<mask id="emittedmask0"  maskUnits="userSpaceOnUse" x="0" y="0" width="16" height="16">
<g id="emittedClip 4">
<path fill-rule="evenodd" clip-rule="evenodd" d="M 0 16L 16 16L 16 0L 0 0L 0 16Z" fill="white"/>
</g>
</mask>
<g mask="url(#emittedmask0)">
<g id="emittedCombined Shape">
<path fill-rule="evenodd" clip-rule="evenodd" d="M 14 5L 11 5L 11 2L 14 2L 14 5ZM 14 15C 14 15.55 13.55 16 13 16C 12.45 16 12 15.55 12 15L 12 14L 11 14C 10.45 14 10 13.55 10 13C 10 12.45 10.45 12 11 12L 12 12L 12 11C 12 10.45 12.45 10 13 10C 13.55 10 14 10.45 14 11L 14 12L 15 12C 15.55 12 16 12.45 16 13C 16 13.55 15.55 14 15 14L 14 14L 14 15ZM 15 0L 10 0C 9.44699 0 9 0.447998 9 1L 9 6C 9 6.552 9.44699 7 10 7L 15 7C 15.553 7 16 6.552 16 6L 16 1C 16 0.447998 15.553 0 15 0ZM 2 14L 5 14L 5 11L 2 11L 2 14ZM 1 9L 6 9C 6.55301 9 7 9.448 7 10L 7 15C 7 15.552 6.55301 16 6 16L 1 16C 0.446991 16 0 15.552 0 15L 0 10C 0 9.448 0.446991 9 1 9ZM 5 5L 2 5L 2 2L 5 2L 5 5ZM 6 0L 1 0C 0.447 0 0 0.448 0 1L 0 6C 0 6.552 0.447 7 1 7L 6 7C 6.553 7 7 6.552 7 6L 7 1C 7 0.448 6.553 0 6 0L 6 0Z" />
</g>
</g>
</g>
</g>
</svg>

