<svg width="16" fill="#212C42" height="16" viewBox="0 0 16 16" version="1.1" xmlns="http://www.w3.org/2000/svg" xmlns:xlink="http://www.w3.org/1999/xlink">
<g id="error-form">
<path fill-rule="evenodd" clip-rule="evenodd" d="M 5 14L 6 14C 6.55298 14 7 14.447 7 15C 7 15.553 6.55298 16 6 16L 5 16L 4 16L 1 16C 0.447021 16 0 15.553 0 15L 0 1C 0 0.447021 0.447021 0 1 0L 3 0C 3.55298 0 4 0.447021 4 1C 4 1.55298 3.55298 2 3 2L 2 2L 2 14L 4 14L 5 14ZM 6 2L 8 2C 8.552 2 9 1.55298 9 1C 9 0.447021 8.552 0 8 0L 6 0C 5.44702 0 5 0.447021 5 1C 5 1.55298 5.44702 2 6 2ZM 14.3594 13L 15.7194 11.64C 16.0934 11.266 16.0934 10.6541 15.7194 10.28C 15.3454 9.90698 14.7334 9.90698 14.3594 10.28L 13.0004 11.64L 11.6404 10.28C 11.2664 9.90698 10.6544 9.90698 10.2804 10.28C 9.90637 10.6541 9.90637 11.266 10.2804 11.64L 11.6404 13L 10.2804 14.36C 9.90637 14.734 9.90637 15.3459 10.2804 15.72C 10.6544 16.093 11.2664 16.093 11.6404 15.72L 13.0004 14.36L 14.3594 15.72C 14.7334 16.093 15.3454 16.093 15.7194 15.72C 16.0934 15.3459 16.0934 14.734 15.7194 14.36L 14.3594 13ZM 5 6L 9 6C 9.552 6 10 5.55298 10 5C 10 4.44702 9.552 4 9 4L 5 4C 4.44702 4 4 4.44702 4 5C 4 5.55298 4.44702 6 5 6ZM 13 0C 13.553 0 14 0.447021 14 1L 14 6L 14 7C 14 7.552 13.553 8 13 8C 12.447 8 12 7.552 12 7L 12 5L 12 2L 11 2C 10.447 2 10 1.55298 10 1C 10 0.447021 10.447 0 11 0L 13 0Z" />
</g>
</svg>

