<svg width="16"  fill="#212C42" height="16" viewBox="0 0 16 16" version="1.1" xmlns="http://www.w3.org/2000/svg" xmlns:xlink="http://www.w3.org/1999/xlink">
<g id="filled-blankCombined Shape">
<path fill-rule="evenodd" clip-rule="evenodd" d="M 11 0L 13 0C 13.553 0 14 0.447021 14 1L 14 15C 14 15.553 13.553 16 13 16L 1 16C 0.446991 16 0 15.553 0 15L 0 1C 0 0.447021 0.446991 0 1 0L 3 0C 3.55301 0 4 0.447021 4 1C 4 1.55298 3.55301 2 3 2L 2 2L 2 14L 12 14L 12 2L 11 2C 10.447 2 10 1.55298 10 1C 10 0.447021 10.447 0 11 0ZM 8 2L 6 2C 5.44699 2 5 1.55298 5 1C 5 0.447021 5.44699 0 6 0L 8 0C 8.55301 0 9 0.447021 9 1C 9 1.55298 8.55301 2 8 2ZM 5 6L 9 6C 9.55301 6 10 5.55298 10 5C 10 4.44702 9.55301 4 9 4L 5 4C 4.44699 4 4 4.44702 4 5C 4 5.55298 4.44699 6 5 6ZM 5 8L 9 8C 9.55301 8 10 8.44702 10 9C 10 9.55298 9.55301 10 9 10L 5 10C 4.44699 10 4 9.55298 4 9C 4 8.44702 4.44699 8 5 8Z" transform="translate(1 0)" />
</g>

</svg>

