<svg width="16" fill="#212C42" height="16" viewBox="0 0 16 16" version="1.1" xmlns="http://www.w3.org/2000/svg" xmlns:xlink="http://www.w3.org/1999/xlink">
<g id="filled-cart">
<path fill-rule="evenodd" clip-rule="evenodd" d="M 15.9551 2.76971C 15.9724 2.83306 15.9893 2.89465 15.992 2.96203C 15.9925 2.96795 15.9942 2.97345 15.9959 2.979C 15.9979 2.98565 16 2.99243 16 3.00006C 16 3.03347 15.9915 3.0643 15.9831 3.095C 15.9776 3.11483 15.9721 3.13464 15.969 3.15506C 15.9655 3.17611 15.9644 3.19714 15.9633 3.21814C 15.9617 3.251 15.96 3.28372 15.949 3.31604L 13.9491 9.31604C 13.8121 9.72406 13.4301 10.0001 13.0001 10.0001L 12.0002 10.0001L 4.00064 10.0001C 3.58368 10.0001 3.21069 9.74105 3.06369 9.35104L 0.0638705 1.35104C -0.13013 0.834042 0.132871 0.257046 0.648831 0.0630454C 1.16879 -0.128941 1.74276 0.132046 1.93676 0.649044L 2.44372 2.00006L 3.19369 4.00006L 4.6936 8.00006L 12.2792 8.00006L 13.5001 4.33703L 13.6171 4.00006L 12.0002 4.00006L 9.00036 4.00006C 8.44742 4.00006 8.00042 3.55206 8.00042 3.00006C 8.00042 2.44705 8.44742 2.00006 9.00036 2.00006L 12.0002 2.00006L 14.3081 2.00006L 15.0001 2.00006C 15.0335 2.00006 15.0633 2.00821 15.0931 2.01638L 15.0937 2.01654L 15.094 2.01663C 15.1129 2.02179 15.132 2.02697 15.152 2.03006C 15.1685 2.03186 15.1849 2.03283 15.2013 2.03381L 15.2016 2.03384C 15.24 2.03613 15.2783 2.03845 15.316 2.05105C 15.3231 2.05322 15.3289 2.0574 15.3345 2.06143C 15.3393 2.06488 15.344 2.0682 15.349 2.07003C 15.4054 2.09127 15.453 2.12249 15.5018 2.15448L 15.535 2.17605C 15.5501 2.18603 15.5655 2.19528 15.5808 2.20443C 15.6161 2.22561 15.6507 2.24643 15.68 2.27505C 15.7155 2.30752 15.743 2.34741 15.7703 2.38696C 15.7791 2.39978 15.7879 2.41256 15.797 2.42504C 15.8077 2.44043 15.8189 2.45529 15.83 2.47006C 15.8571 2.50622 15.8838 2.54187 15.903 2.58303C 15.9195 2.61737 15.9277 2.65478 15.936 2.69265L 15.9361 2.69293C 15.9403 2.71231 15.9446 2.73178 15.95 2.75103L 15.9551 2.76971ZM 1.00061 13.9997C 1.00061 12.8957 1.89657 11.9997 3.00049 11.9997C 4.10443 11.9997 5.00039 12.8957 5.00039 13.9997C 5.00039 15.1037 4.10443 15.9997 3.00049 15.9997C 1.89657 15.9997 1.00061 15.1037 1.00061 13.9997ZM 12 11.9997C 10.8961 11.9997 10.0001 12.8957 10.0001 13.9997C 10.0001 15.1037 10.8961 15.9997 12 15.9997C 13.1039 15.9997 13.9999 15.1037 13.9999 13.9997C 13.9999 12.8957 13.1039 11.9997 12 11.9997ZM 9.00018 4.99966C 9.55316 4.99966 10.0001 5.44766 10.0001 5.99966C 10.0001 6.55166 9.55316 6.99966 9.00018 6.99966C 8.44723 6.99966 8.00024 6.55166 8.00024 5.99966C 8.00024 5.44766 8.44723 4.99966 9.00018 4.99966ZM 6.00033 6.99966C 6.55331 6.99966 7.00027 6.55166 7.00027 5.99966C 7.00027 5.44766 6.55331 4.99966 6.00033 4.99966C 5.44735 4.99966 5.00039 5.44766 5.00039 5.99966C 5.00039 6.55166 5.44735 6.99966 6.00033 6.99966ZM 7.00027 2.99966C 7.00027 3.55166 6.55331 3.99966 6.00033 3.99966C 5.44735 3.99966 5.00039 3.55166 5.00039 2.99966C 5.00039 2.44766 5.44735 1.99966 6.00033 1.99966C 6.55331 1.99966 7.00027 2.44766 7.00027 2.99966Z" transform="translate(-0.000274658 -0.000152588)" />
</g>

</svg>

