<svg width="16" fill="#212C42" height="16" viewBox="0 0 16 16" version="1.1" xmlns="http://www.w3.org/2000/svg" xmlns:xlink="http://www.w3.org/1999/xlink">
    <g id="formed-g-01">
        <path fill-rule="evenodd" clip-rule="evenodd" d="M 6 14L 5 14L 4 14L 2 14L 2 2L 3 2C 3.55298 2 4 1.55298 4 1C 4 0.447021 3.55298 0 3 0L 1 0C 0.447021 0 0 0.447021 0 1L 0 15C 0 15.553 0.447021 16 1 16L 4 16L 5 16L 6 16C 6.55298 16 7 15.553 7 15C 7 14.447 6.55298 14 6 14ZM 6 2L 8 2C 8.552 2 9 1.55298 9 1C 9 0.447021 8.552 0 8 0L 6 0C 5.44702 0 5 0.447021 5 1C 5 1.55298 5.44702 2 6 2ZM 9 6L 5 6C 4.44702 6 4 5.55298 4 5C 4 4.44702 4.44702 4 5 4L 9 4C 9.552 4 10 4.44702 10 5C 10 5.55298 9.552 6 9 6ZM 14 1C 14 0.447021 13.553 0 13 0L 11 0C 10.447 0 10 0.447021 10 1C 10 1.55298 10.447 2 11 2L 12 2L 12 5L 12 7C 12 7.552 12.447 8 13 8C 13.553 8 14 7.552 14 7L 14 6L 14 1ZM 15.6689 10.3247C 16.1099 10.7567 16.1099 11.4547 15.6689 11.8867L 11.7979 15.6767C 11.5768 15.8917 11.2878 15.9997 10.9989 15.9997C 10.7099 15.9997 10.4229 15.8917 10.2009 15.6767L 8.33087 13.8867C 7.88989 13.4547 7.88989 12.7567 8.33087 12.3237C 8.77185 11.8917 9.4859 11.8917 9.92786 12.3237L 10.9989 13.3317L 14.0719 10.3247C 14.5139 9.89166 15.2278 9.89166 15.6689 10.3247Z" />
    </g>
</svg>

