<svg width="16" height="16" fill="#212C42" viewBox="0 0 16 16" version="1.1" xmlns="http://www.w3.org/2000/svg" xmlns:xlink="http://www.w3.org/1999/xlink">
    <g id="human-icon">
        <path fill-rule="evenodd" clip-rule="evenodd" d="M 2.01435 14.004C 1.99135 13.983 2.00235 13.963 2.00935 13.951C 3.15035 11.992 4.82835 11 6.99935 11C 9.17835 11 10.8583 11.993 11.9803 14L 2.01435 14.004ZM 6.99933 2C 8.65433 2 9.99933 3.345 9.99933 5C 9.99933 6.654 8.65433 8 6.99933 8C 5.34533 8 3.99933 6.654 3.99933 5C 3.99933 3.345 5.34533 2 6.99933 2L 6.99933 2ZM 13.7213 12.95C 12.7713 11.307 11.3493 9.97 9.39934 9.361C 10.9423 8.509 11.9993 6.886 11.9993 5C 11.9993 2.238 9.76134 0 6.99934 0C 4.23834 0 1.99934 2.238 1.99934 5C 1.99934 6.888 3.05934 8.513 4.60534 9.363C 2.66734 9.973 1.23734 11.303 0.281339 12.944C -0.506661 14.298 0.452339 16 2.01934 16L 11.9803 16C 13.5443 16 14.5043 14.304 13.7213 12.95L 13.7213 12.95Z" transform="translate(1 0)" />
    </g>
</svg>

