<?xml version="1.0" encoding="utf-8"?>
<!-- Generator: Adobe Illustrator 21.0.0, SVG Export Plug-In . SVG Version: 6.00 Build 0)  -->
<svg version="1.1" id="图层_1" xmlns="http://www.w3.org/2000/svg" xmlns:xlink="http://www.w3.org/1999/xlink" x="0px" y="0px"
	 viewBox="0 0 141 126" style="enable-background:new 0 0 141 126;" xml:space="preserve">
<path d="M6,0h8c3.3,0,6,2.7,6,6v8c0,3.3-2.7,6-6,6H6c-3.3,0-6-2.7-6-6V6C0,2.7,2.7,0,6,0z"/>
<path d="M6,53h8c3.3,0,6,2.7,6,6v8c0,3.3-2.7,6-6,6H6c-3.3,0-6-2.7-6-6v-8C0,55.7,2.7,53,6,53z"/>
<path d="M6,106h8c3.3,0,6,2.7,6,6v8c0,3.3-2.7,6-6,6H6c-3.3,0-6-2.7-6-6v-8C0,108.7,2.7,106,6,106z"/>
<path d="M46,0h89c3.3,0,6,2.7,6,6v8c0,3.3-2.7,6-6,6H46c-3.3,0-6-2.7-6-6V6C40,2.7,42.7,0,46,0z"/>
<path d="M46,53h89c3.3,0,6,2.7,6,6v8c0,3.3-2.7,6-6,6H46c-3.3,0-6-2.7-6-6v-8C40,55.7,42.7,53,46,53z"/>
<path d="M46,106h89c3.3,0,6,2.7,6,6v8c0,3.3-2.7,6-6,6H46c-3.3,0-6-2.7-6-6v-8C40,108.7,42.7,106,46,106z"/>
</svg>
