<?xml version="1.0" encoding="utf-8"?>
<!-- Generator: Adobe Illustrator 21.0.0, SVG Export Plug-In . SVG Version: 6.00 Build 0)  -->
<svg version="1.1" id="Communication" xmlns="http://www.w3.org/2000/svg" xmlns:xlink="http://www.w3.org/1999/xlink" x="0px"
	 y="0px" viewBox="0 0 32.4 34.7" style="enable-background:new 0 0 32.4 34.7;" xml:space="preserve">
<path d="M21.5,10.3L21.5,10.3c0.1,0.7,0.8,1.6,1.5,1.8c0,0,0.5,0.1,0.8,0.1l6.9-1.2c0.5,0,0.9-0.3,1.2-0.7c0.3-0.4,0.4-0.8,0.4-1.3
	l-0.6-6.8c-0.1-1-0.6-2.1-1.9-2.3c-0.5-0.1-1,0.1-1.3,0.5C28.1,1,27.9,1.5,28,2l0.2,2.2c-2-1.6-4.3-2.8-6.8-3.5
	C12.3-1.6,2.9,4,0.5,13.2c-1.1,4.5-0.5,9.1,1.9,13c2.3,4,6.1,6.8,10.5,7.9c1.4,0.4,2.9,0.5,4.3,0.5c5.4,0,10.5-2.6,13.9-7.1
	c0.6-0.8,0.4-2.2-0.4-2.8c-0.8-0.5-2.4-0.5-3,0.4c-3.1,4.3-8.4,6.2-13.6,4.9c-6.8-1.8-11-8.8-9.2-15.7c0.9-3.3,2.9-6.1,5.9-7.9
	c3-1.8,6.4-2.3,9.7-1.4c2,0.5,3.8,1.4,5.2,2.8l-2.4,0.2C22.3,8.2,21.4,9.4,21.5,10.3z"/>
</svg>
