<?xml version="1.0" encoding="utf-8"?>
<!-- Generator: Adobe Illustrator 21.0.0, SVG Export Plug-In . SVG Version: 6.00 Build 0)  -->
<svg version="1.1" id="Communication" xmlns="http://www.w3.org/2000/svg" xmlns:xlink="http://www.w3.org/1999/xlink" x="0px"
	 y="0px" viewBox="0 0 32.4 31.2" style="enable-background:new 0 0 32.4 31.2;" xml:space="preserve">
<g>
	<path d="M31.9,19.4c0.3-1.3,0.5-2.5,0.5-3.8c0-1.2-0.2-2.5-0.5-3.8l-0.1-0.3l-0.2,0.1l0,0l0.1-0.1l0-0.1c0,0,0,0,0-0.1l-0.1-0.2
		c0,0,0,0,0,0l-0.4-0.3l-0.6-0.1c0,0,0,0,0,0c0,0-0.1,0-0.1,0l-0.2,0c-0.8,0.2-1.6,0.1-2.2-0.3c-0.7-0.4-1.2-1-1.4-1.8
		c-0.2-0.8-0.1-1.6,0.3-2.3C27,6.2,27.2,6,27.4,5.8l-0.2-0.1l0,0l0.2,0.1l0.2-0.3l0.1-0.6l0-0.2l-0.2-0.5c0,0,0,0,0-0.1
		c0,0,0,0-0.1-0.1l0,0l-0.2,0.1h0l0.1-0.2l0,0c-1.9-1.8-4.1-3.1-6.5-3.8l-0.1,0.2h0l0-0.2l-0.1,0c0,0-0.1,0-0.1,0l-0.2,0
		c0,0-0.1,0-0.1,0l-0.1,0c0,0,0,0-0.1,0l-0.4,0.2l-0.4,0.4c0,0,0,0,0,0.1L19.1,1c-0.2,0.8-0.7,1.4-1.4,1.8c-0.7,0.4-1.5,0.5-2.3,0.3
		c-0.8-0.2-1.4-0.7-1.8-1.4c-0.1-0.2-0.2-0.4-0.3-0.7L13.1,1l0,0l0.2-0.1l-0.1-0.3c0,0,0,0,0-0.1l-0.2-0.2c0,0,0,0-0.1,0
		c0,0,0,0-0.1-0.1L12.4,0c0,0-0.1,0-0.1,0l-0.4,0c0,0-0.1,0-0.1,0l-0.1,0c0,0,0,0-0.1,0l-0.1,0c-2.4,0.7-4.7,2-6.5,3.8L5,3.9
		L4.7,4.3l0.2,0.1l0,0l-0.2,0l0,0c0,0,0,0,0,0.1l0,0.3l0,0.2c0,0,0,0.1,0,0.1l0,0.1c0,0,0,0,0,0.1l0.1,0.2L5,5.8
		c0.6,0.6,0.9,1.3,0.9,2.1C5.9,8.7,5.6,9.4,5,10c-0.6,0.6-1.3,0.9-2.1,0.9c-0.2,0-0.5,0-0.8-0.1l-0.5,0c0,0,0,0-0.1,0l-0.1,0
		c0,0,0,0-0.1,0l-0.2,0.1l0.1,0.2h0l-0.1-0.1l-0.3,0.2l-0.3,0.4c0,0,0,0,0,0.1l-0.1,0.2C0.2,13.1,0,14.3,0,15.6
		c0,1.2,0.2,2.5,0.5,3.8l0.1,0.2c0,0,0,0.1,0,0.1l0,0c0,0,0,0,0.1,0.1c0,0,0,0,0,0.1l0,0c0,0,0.1,0.1,0.1,0.1c0,0,0,0,0.1,0.1
		l0.2,0.1c0,0,0.1,0,0.1,0l0.2,0.1c0,0,0.1,0,0.1,0l0.3,0l0.1,0c0,0,0.1,0,0.1,0c0,0,0.1,0,0.1,0l0,0c0.8-0.2,1.6-0.1,2.2,0.3
		c0.7,0.4,1.2,1,1.4,1.8c0.2,0.8,0.1,1.6-0.3,2.3C5.4,25,5.2,25.2,5,25.3L5,25.4c0,0,0,0,0,0c0,0,0,0,0,0.1l-0.1,0.2l-0.1,0.6l0,0.1
		L4.8,27c0,0,0,0,0,0.1c0,0,0,0,0,0.1c0,0,0,0,0,0.1L5,27.3l0.2-0.1h0l-0.1,0.2c1.9,1.8,4.1,3.1,6.6,3.8c0,0,0.1,0,0.1,0
		c0,0,0.1,0,0.1,0l0.1,0l0.2,0c0,0,0.1,0,0.1,0c0,0,0.1,0,0.1,0c0,0,0.1,0,0.1-0.1c0,0,0.1,0,0.1-0.1c0,0,0.1,0,0.1-0.1
		c0,0,0.1,0,0.1-0.1c0,0,0.1-0.1,0.1-0.1l0.2-0.2c0,0,0-0.1,0.1-0.1c0,0,0-0.1,0.1-0.1c0,0,0-0.1,0-0.1c0.2-0.8,0.7-1.4,1.4-1.8
		c0.7-0.4,1.5-0.5,2.3-0.3c0.8,0.2,1.4,0.7,1.8,1.4c0.1,0.2,0.2,0.4,0.3,0.7l0,0.1l0.2,0l-0.2,0.1l0.2,0.4c0,0,0,0,0,0l0.3,0.2
		l0.1-0.2h0L19.7,31l0.3,0.1l0.1-0.2l0,0.2l0.2,0c0,0,0.1,0,0.1,0c0,0,0.1,0,0.1,0c0,0,0,0,0,0l0.4-0.1c2.4-0.7,4.7-2,6.5-3.8
		c0,0,0,0,0,0l0,0c0,0,0,0,0.1-0.1l0.2-0.3l-0.2-0.1l0,0l0.2,0l0-0.1c0,0,0,0,0-0.1l0-0.3l0-0.3c0,0,0,0,0-0.1c0,0,0,0,0-0.1l0-0.1
		c0,0,0,0,0-0.1l-0.3-0.4c-0.6-0.6-0.9-1.3-0.9-2.1c0-0.8,0.3-1.5,0.9-2.1c0.7-0.7,1.8-1.1,2.9-0.8l0,0c0,0,0.1,0,0.1,0
		c0,0,0.1,0,0.1,0l0.1,0c0,0,0.1,0,0.1,0l0.1,0c0,0,0.1,0,0.1,0c0,0,0.1,0,0.1,0c0,0,0.1,0,0.1-0.1c0,0,0,0,0.1,0l0.3-0.3
		c0,0,0.1-0.1,0.1-0.1l0.2-0.4C31.9,19.5,31.9,19.4,31.9,19.4l-0.2,0l0,0L31.9,19.4z M7.9,26.1c0.8-1.3,1-2.9,0.6-4.3
		c-0.4-1.5-1.4-2.7-2.7-3.5c-0.9-0.5-1.9-0.8-2.9-0.8c-0.1-0.7-0.1-1.3-0.1-1.9c0-0.6,0-1.3,0.1-1.9c1.5,0,3-0.6,4-1.7
		c1.1-1.1,1.7-2.5,1.7-4.1c0-1-0.3-2-0.8-2.9c1-0.8,2.1-1.5,3.3-1.9c0.8,1.3,2,2.3,3.5,2.7c1.5,0.4,3.1,0.2,4.4-0.6
		C20,4.7,20.7,4,21.2,3.1c1.2,0.5,2.3,1.1,3.3,1.9c-0.8,1.3-1,2.9-0.6,4.3c0.4,1.5,1.4,2.7,2.7,3.5c0.9,0.5,1.9,0.8,2.9,0.8
		c0.1,0.7,0.1,1.3,0.1,1.9s0,1.3-0.1,1.9c-1.5,0-3,0.6-4,1.7h0c-1.1,1.1-1.7,2.5-1.7,4.1c0,1,0.3,2,0.8,2.9c-1,0.8-2.1,1.4-3.3,1.9
		c-0.8-1.3-2-2.3-3.5-2.7c-0.5-0.1-1-0.2-1.5-0.2c-1,0-2,0.3-2.9,0.8c-0.9,0.5-1.6,1.2-2.1,2.1C10,27.6,8.9,26.9,7.9,26.1z
		 M31.7,11.7L31.7,11.7L31.7,11.7L31.7,11.7z M31.5,11.4L31.5,11.4L31.5,11.4L31.5,11.4z M31.4,11.3L31.4,11.3L31.4,11.3L31.4,11.3z
		 M31.3,11.2L31.3,11.2L31.3,11.2L31.3,11.2z M31.3,11.1L31.3,11.1L31.3,11.1L31.3,11.1z M31.2,11.1L31.2,11.1L31.2,11.1L31.2,11.1
		L31.2,11.1z M31.1,11L31.1,11L31.1,11L31.1,11z M27.3,5.6L27.3,5.6L27.3,5.6L27.3,5.6z M27.5,5.3L27.5,5.3L27.5,5.3L27.5,5.3z
		 M27.5,5.3L27.5,5.3L27.5,5.3L27.5,5.3z M27.5,5.2L27.5,5.2L27.5,5.2L27.5,5.2z M27.6,4.9L27.6,4.9L27.6,4.9L27.6,4.9z M27.5,4.5
		L27.5,4.5L27.5,4.5L27.5,4.5z M27.5,4.4L27.5,4.4L27.5,4.4L27.5,4.4z M27.4,4.3L27.4,4.3L27.4,4.3L27.4,4.3z M20.7,0.2L20.7,0.2
		L20.7,0.2L20.7,0.2z M20.4,0.2L20.4,0.2L20.4,0.2L20.4,0.2z M19.7,0.4L19.7,0.4L19.7,0.4L19.7,0.4z M19.6,0.6L19.6,0.6L19.6,0.6
		L19.6,0.6z M19.5,0.6L19.5,0.6L19.5,0.6L19.5,0.6z M19.3,0.9L19.3,0.9L19.3,0.9L19.3,0.9z M19.3,1L19.3,1L19.3,1L19.3,1z M13.1,0.9
		L13.1,0.9L13.1,0.9L13.1,0.9z M13.1,0.9L13.1,0.9L13.1,0.9L13.1,0.9z M13,0.8L13,0.8L13,0.8L13,0.8z M12.9,0.6L12.9,0.6L12.9,0.6
		L12.9,0.6z M12.8,0.5L12.8,0.5L12.8,0.5L12.8,0.5z M12.7,0.4L12.7,0.4L12.7,0.4L12.7,0.4L12.7,0.4z M12.6,0.3L12.6,0.3L12.6,0.3
		L12.6,0.3z M12.4,0.3L12.4,0.3L12.4,0.3L12.4,0.3z M12.1,0.2L12.1,0.2L12.1,0.2L12.1,0.2z M12,0.2L12,0.2L12,0.2L12,0.2z M5,4.2
		L5,4.2L5,4.2L5,4.2z M5,4.3L5,4.3L5,4.3L5,4.3z M4.8,4.8L4.8,4.8L4.8,4.8L4.8,4.8z M4.8,4.9L4.8,4.9L4.8,4.9L4.8,4.9z M4.9,5.2
		L4.9,5.2L4.9,5.2L4.9,5.2z M5.1,5.6L5.1,5.6L5.1,5.6L5.1,5.6z M5.1,5.6L5.1,5.6L5.1,5.6L5.1,5.6L5.1,5.6z M2,11C2,11,2,11,2,11
		L2,11L2,11z M1.9,11C1.9,11,1.9,11,1.9,11L1.9,11L1.9,11z M1.8,10.9L1.8,10.9L1.8,10.9L1.8,10.9L1.8,10.9z M1.3,11L1.3,11L1.3,11
		L1.3,11z M1.2,11.1L1.2,11.1L1.2,11.1L1.2,11.1z M1,11.2L1,11.2L1,11.2L1,11.2z M0.9,11.4L0.9,11.4L0.9,11.4L0.9,11.4L0.9,11.4z
		 M0.8,11.5L0.8,11.5L0.8,11.5L0.8,11.5z M0.8,11.6L0.8,11.6L0.8,11.6L0.8,11.6z M0.7,11.7L0.7,11.7L0.7,11.7L0.7,11.7z M1.1,20
		L1.1,20L1.1,20L1.1,20z M1.2,20L1.2,20L1.2,20L1.2,20z M5.1,25.5L5.1,25.5L5.1,25.5L5.1,25.5z M5,25.7L5,25.7L5,25.7L5,25.7z
		 M4.9,25.9L4.9,25.9L4.9,25.9L4.9,25.9z M4.9,26L4.9,26L4.9,26L4.9,26z M4.9,26L4.9,26L4.9,26L4.9,26z M4.9,26.1L4.9,26.1L4.9,26.1
		L4.9,26.1z M4.8,26.2L4.8,26.2L4.8,26.2L4.8,26.2z M4.8,26.4L4.8,26.4L4.8,26.4L4.8,26.4z M4.8,26.5L4.8,26.5L4.8,26.5L4.8,26.5z
		 M4.9,26.8L4.9,26.8L4.9,26.8L4.9,26.8z M5.1,27.1L5.1,27.1L5.1,27.1L5.1,27.1z M12,31L12,31L12,31L12,31z M12.1,31L12.1,31
		L12.1,31L12.1,31z M19.4,30.3L19.4,30.3L19.4,30.3L19.4,30.3z M19.4,30.4L19.4,30.4L19.4,30.4L19.4,30.4z M19.4,30.5L19.4,30.5
		L19.4,30.5L19.4,30.5z M19.7,30.7L19.7,30.7L19.7,30.7L19.7,30.7z M19.9,30.8L19.9,30.8L19.9,30.8L19.9,30.8z M20,30.9L20,30.9
		L20,30.9L20,30.9z M20,30.9L20,30.9L20,30.9L20,30.9L20,30.9z M20.1,30.9L20.1,30.9L20.1,30.9L20.1,30.9L20.1,30.9z M20.5,31
		L20.5,31L20.5,31L20.5,31z M20.7,30.9L20.7,30.9L20.7,30.9L20.7,30.9z M27.4,26.9L27.4,26.9L27.4,26.9L27.4,26.9z M27.4,26.9
		L27.4,26.9L27.4,26.9L27.4,26.9z M27.5,26.7L27.5,26.7L27.5,26.7L27.5,26.7z M27.6,26.3L27.6,26.3L27.6,26.3L27.6,26.3z M27.6,26.2
		L27.6,26.2L27.6,26.2L27.6,26.2z M27.5,26L27.5,26L27.5,26L27.5,26z M27.4,25.7L27.4,25.7L27.4,25.7L27.4,25.7z"/>
	<path d="M22.7,15.6c0-3.6-2.9-6.5-6.5-6.5c-3.6,0-6.5,2.9-6.5,6.5c0,3.6,2.9,6.5,6.5,6.5C19.8,22.1,22.7,19.2,22.7,15.6z M20,15.6
		c0,2.1-1.7,3.8-3.8,3.8c-2.1,0-3.8-1.7-3.8-3.8s1.7-3.8,3.8-3.8C18.3,11.8,20,13.5,20,15.6z"/>
</g>
</svg>
