<?xml version="1.0" encoding="utf-8"?>
<!-- Generator: Adobe Illustrator 21.0.0, SVG Export Plug-In . SVG Version: 6.00 Build 0)  -->
<svg version="1.1" id="图层_1" xmlns="http://www.w3.org/2000/svg" xmlns:xlink="http://www.w3.org/1999/xlink" x="0px" y="0px"
	 viewBox="0 0 607 553.4" style="enable-background:new 0 0 607 553.4;" xml:space="preserve">
<path d="M605.9,521.2c-1.6-6.9-5.7-12.7-11.7-16.5l0,0c-1.1-0.7-109.7-68-192.4-71.7l-0.2-8V421c33.7-17.7,61.8-44.9,81.5-79
	c20.3-35.1,31-76.6,31-120C514,99.6,419.7,0,303.8,0C187.9,0,93.6,99.6,93.6,222c0,42.6,10.7,83.9,31.1,119.2
	c19.7,34.2,47.6,61.6,80.7,79.4v4.4l-0.2,8c-82.7,3.7-191.3,71-192.4,71.7c-6,3.8-10.1,9.6-11.7,16.5c-1.6,6.9-0.3,14,3.5,20
	c4.9,7.7,13.3,12.3,22.4,12.3c4.6,0,8.8-1.1,13.8-3.5c0.1,0,0.5-0.2,1.2-0.7c18-10.6,110.7-63.7,169.2-63.7l21.1-2.8
	c14.4-0.2,26-11.9,26-26.4c0-49.3,0-56.3,0-57.4l0-1.5l-0.1-0.3c-1-9.6-6.6-18.7-14.1-22.6c-0.5-0.4-1-0.7-1.6-0.9
	c-55.8-24.2-91.8-84.2-91.8-152.7c0-90.7,68.7-164.5,153.2-164.5c38.9,0,76,15.7,104.5,44.2c31,31,48.7,74.8,48.7,120.1
	c0,70.2-35.4,128.9-92.5,153l-1.4,0.7l-0.1,0.1c-8.3,4.5-14.2,14.8-14.2,25.3l0,56.5c0,14.4,11.6,26.2,26,26.4l20.5,2.7l0.7,0
	c58.5,0,151.2,53.1,169.2,63.7c0.7,0.4,1.1,0.6,1.2,0.7c4.9,2.4,9.2,3.5,13.8,3.5c9.1,0,17.4-4.6,22.4-12.3
	C606.2,535.1,607.4,528.1,605.9,521.2z"/>
</svg>
