<?xml version="1.0" encoding="utf-8"?>
<!-- Generator: Adobe Illustrator 21.0.0, SVG Export Plug-In . SVG Version: 6.00 Build 0)  -->
<svg version="1.1" id="Communication" xmlns="http://www.w3.org/2000/svg" xmlns:xlink="http://www.w3.org/1999/xlink" x="0px"
	 y="0px" viewBox="0 0 31.4 33" style="enable-background:new 0 0 31.4 33;" xml:space="preserve">
<g>
	<path d="M20.8,24.5V13.7c0-0.9-0.7-1.6-1.6-1.6s-1.6,0.7-1.6,1.6v10.8c0,0.9,0.7,1.6,1.6,1.6S20.8,25.4,20.8,24.5z"/>
	<path d="M13.9,24.5V13.7c0-0.9-0.7-1.6-1.6-1.6c-0.9,0-1.6,0.7-1.6,1.6v10.8c0,0.9,0.7,1.6,1.6,1.6C13.2,26.1,13.9,25.4,13.9,24.5z
		"/>
	<path d="M29.8,5.8h-4.9V3.8c0-2.1-1.7-3.8-3.7-3.8H10.3C8.2,0,6.5,1.7,6.5,3.8v2.1H1.6C0.7,5.8,0,6.5,0,7.4S0.7,9,1.6,9h28.2
		c0.9,0,1.6-0.7,1.6-1.6S30.7,5.8,29.8,5.8z M21.7,3.8v2.1h-12V3.8c0-0.3,0.3-0.6,0.6-0.6h10.9C21.5,3.2,21.7,3.4,21.7,3.8z"/>
	<path d="M26,12c-0.9,0-1.6,0.7-1.6,1.6v15.4c0,0.4-0.3,0.6-0.6,0.6h-16c-0.4,0-0.6-0.3-0.6-0.6V13.6C7,12.7,6.3,12,5.4,12
		c-0.9,0-1.6,0.7-1.6,1.6v15.4c0,2.2,1.8,3.9,3.9,3.9h16c2.2,0,3.9-1.8,3.9-3.9V13.7C27.6,12.8,26.9,12,26,12z"/>
</g>
</svg>
