<?xml version="1.0" encoding="utf-8"?>
<!-- Generator: Adobe Illustrator 21.0.0, SVG Export Plug-In . SVG Version: 6.00 Build 0)  -->
<svg version="1.1" id="图层_1" xmlns="http://www.w3.org/2000/svg" xmlns:xlink="http://www.w3.org/1999/xlink" x="0px" y="0px"
	 viewBox="0 0 739.8 740.1" style="enable-background:new 0 0 739.8 740.1;" xml:space="preserve">
<g>
	<path d="M710.7,226.1c-18.6-44.1-45.3-83.7-79.3-117.7c-34-34-73.6-60.7-117.7-79.3C468,9.8,419.5,0,369.5,0
		c-50,0-98.5,9.8-144.1,29.1c-44.1,18.6-83.7,45.3-117.7,79.3c-34,34-60.7,73.6-79.3,117.7C9.1,271.8-0.7,320.3-0.7,370.3
		c0,50,9.8,98.5,29.1,144.2c18.6,44.1,45.3,83.7,79.3,117.7c34,34,73.6,60.7,117.7,79.3c45.7,19.3,94.1,29.1,144.1,29.1
		c50,0,98.5-9.8,144.1-29.1c44.1-18.6,83.7-45.3,117.7-79.3c34-34,60.7-73.6,79.3-117.7c19.3-45.7,29.1-94.2,29.1-144.2
		C739.8,320.3,730,271.8,710.7,226.1z M369.5,671.8C203.3,671.8,68,536.5,68,370.3S203.3,68.8,369.5,68.8
		C535.8,68.8,671,204,671,370.3S535.8,671.8,369.5,671.8z"/>
	<path d="M506.1,282.6c13.4-13.7,13.5-35.1,0-48.8l-0.1-0.1c-13.5-13.3-35.3-13.3-48.8,0l-87.7,87.8L283,235
		c-13.4-13.4-35.2-13.4-48.6,0c-6.5,6.5-10.1,15.2-10.1,24.4s3.6,17.9,10.1,24.4l86.4,86.2l-87,87.1c-13.5,13.4-13.5,35.3-0.1,48.9
		l0.1,0.1c6.7,6.7,15.6,10,24.4,10c8.9,0,17.7-3.3,24.5-10l87-87.1l86.4,86.5c13.4,13.4,35.3,13.4,48.6,0
		c6.5-6.5,10.1-15.2,10.1-24.4c0-9.2-3.6-17.9-10.1-24.4l-86.4-86.2L506.1,282.6L506.1,282.6z"/>
</g>
</svg>
