<?xml version="1.0" encoding="utf-8"?>
<!-- Generator: Adobe Illustrator 21.0.0, SVG Export Plug-In . SVG Version: 6.00 Build 0)  -->
<svg version="1.1" id="图层_1" xmlns="http://www.w3.org/2000/svg" xmlns:xlink="http://www.w3.org/1999/xlink" x="0px" y="0px"
	 viewBox="0 0 745.7 663.4" style="enable-background:new 0 0 745.7 663.4;" xml:space="preserve">
<g>
	<path d="M736.5,562.7L431,33.6C418.9,12.5,397.1,0,372.8,0c-24.3,0-46,12.5-58.2,33.6L9.1,562.7c-12.2,21-12.2,46.1,0,67.2
		c12.2,21,33.9,33.6,58.2,33.6h611c24.3,0,46-12.5,58.2-33.5C748.7,609,748.7,583.8,736.5,562.7z M680.5,597.6L680.5,597.6
		c-0.7,1.2-1.5,1.2-2.1,1.2h-611c-0.6,0-1.4,0-2.2-1.3c-0.7-1.2-0.3-1.8,0-2.4L370.7,66c0.3-0.6,0.7-1.2,2.1-1.2
		c1.4,0,1.9,0.8,2.1,1.2l305.5,529.2C680.8,595.7,681.2,596.4,680.5,597.6z"/>
	<path d="M340.5,226.4v185.3c0,17.8,14.5,32.4,32.4,32.4s32.4-14.5,32.4-32.4V226.4c0-17.8-14.5-32.4-32.4-32.4
		S340.5,208.6,340.5,226.4z"/>
	<path d="M372.8,455.1c-17.8,0-32.4,14.5-32.4,32.4v28.7c0,17.8,14.5,32.4,32.4,32.4s32.4-14.5,32.4-32.4v-28.7
		C405.2,469.6,390.7,455.1,372.8,455.1z"/>
</g>
</svg>
