<?xml version="1.0" encoding="utf-8"?>
<!-- Generator: Adobe Illustrator 21.0.0, SVG Export Plug-In . SVG Version: 6.00 Build 0)  -->
<svg version="1.1" id="图层_1" xmlns="http://www.w3.org/2000/svg" xmlns:xlink="http://www.w3.org/1999/xlink" x="0px" y="0px"
	 viewBox="0 0 153.5 153.4" style="enable-background:new 0 0 153.5 153.4;" xml:space="preserve">
<path d="M151.9,137.4l-19.8-20.3c-1.7-1.8-1.9-4.5-0.6-6.6c19.1-29.3,14.7-69.6-13.5-93.6C90.9-6.3,49.5-5.5,23.2,18.6
	C-7,46.3-7.7,93.4,20.9,122.1c24.5,24.4,63.1,27.4,89,9.7c2.1-1.4,4.5-3.1,8.1,0.6l19.2,19.5c2,2,5.3,2,7.3,0l7.3-7.3
	C154,142.6,154,139.4,151.9,137.4L151.9,137.4z M35.5,107.5c-19.9-19.9-19.9-52.3,0-72.2c19.9-19.9,52.3-19.9,72.2,0
	c19.9,19.9,19.9,52.3,0,72.2C87.8,127.4,55.4,127.4,35.5,107.5L35.5,107.5z"/>
</svg>
