<?xml version="1.0" encoding="utf-8"?>
<!-- Generator: Adobe Illustrator 21.0.0, SVG Export Plug-In . SVG Version: 6.00 Build 0)  -->
<svg version="1.1" id="图层_1" xmlns="http://www.w3.org/2000/svg" xmlns:xlink="http://www.w3.org/1999/xlink" x="0px" y="0px"
	 viewBox="0 0 919 933" style="enable-background:new 0 0 919 933;" xml:space="preserve">
<g>
	<path d="M600.3,933H542V612.8c-0.3-4.9-4.1-8.7-8.7-8.7H413.5c-4.6,0-8.4,3.8-8.7,8.7V933H198.4c-19-0.2-37.1-8.4-50.4-22.8
		c-13.3-14.4-20.5-33.9-20.2-54V500.9H62.5c-26.3,1.4-50.2-16.1-58.4-42.7c-9.6-26.5-2.3-56.5,18.1-74.9L420.1,16.8
		c22.5-22.4,57.5-22.4,79.9,0l397.2,366.5c20.2,18.5,27.2,48.5,17.5,74.9c-8.1,26.6-32,44.1-58.3,42.7h-64.8v355.3
		c0.3,20.1-7,39.6-20.2,54C758.1,924.6,740,932.8,721,933H600.3z M600.3,871H721c7.2-0.6,12.6-7.2,12.3-14.8V439h124.2
		c3.5-4.3,4.1-6.8,0-9.3L459.7,63.2L60.8,429.7c-1.2,1.9-1.2,4.3,0,6.1h127.1v417.3c-0.3,7.6,5.1,14.2,12.3,14.8h147.4V612.7
		c0.3-39.1,30.3-70.6,67.1-70.6h118.5c36.8,0,66.8,31.5,67.1,70.6L600.3,871L600.3,871z M600.3,871"/>
</g>
</svg>
