<?xml version="1.0" encoding="utf-8"?>
<!-- Generator: Adobe Illustrator 21.0.0, SVG Export Plug-In . SVG Version: 6.00 Build 0)  -->
<svg version="1.1" id="图层_1" xmlns="http://www.w3.org/2000/svg" xmlns:xlink="http://www.w3.org/1999/xlink" x="0px" y="0px"
	 viewBox="0 0 318.1 318.1" style="enable-background:new 0 0 318.1 318.1;" xml:space="preserve">
<g>
	<path d="M31.8,0h254.5c17.6,0,31.8,14.2,31.8,31.8c0,17.5-14.2,31.8-31.8,31.8H31.8C14.3,63.6,0,49.3,0,31.8C0,14.2,14.3,0,31.8,0z
		"/>
	<path d="M31.8,127.2h254.5c17.6,0,31.8,14.2,31.8,31.8s-14.2,31.8-31.8,31.8H31.8C14.3,190.8,0,176.6,0,159S14.3,127.2,31.8,127.2z
		"/>
	<path d="M31.8,254.4h254.5c17.6,0,31.8,14.3,31.8,31.8c0,17.6-14.2,31.8-31.8,31.8H31.8C14.3,318.1,0,303.8,0,286.3
		C0,268.7,14.3,254.4,31.8,254.4z"/>
</g>
</svg>
