<?xml version="1.0" encoding="utf-8"?>
<!-- Generator: Adobe Illustrator 21.0.0, SVG Export Plug-In . SVG Version: 6.00 Build 0)  -->
<svg version="1.1" id="图层_1" xmlns="http://www.w3.org/2000/svg" xmlns:xlink="http://www.w3.org/1999/xlink" x="0px" y="0px"
	 viewBox="0 0 160 160" style="enable-background:new 0 0 160 160;" xml:space="preserve">
<style type="text/css">
	.st0{fill-rule:evenodd;clip-rule:evenodd;fill:#101010;}
</style>
<path class="st0" d="M122.8,41.8c-0.3-1.1-2.4-3.9-4-4c-3-0.3-4.8-0.3-8,1C54.2,59.6,56.6,72.1,48.5,89c-3.9,8.1-13.8,26.4-10,31.1
	c5.7,6,19.4-2.4,27.1-6c32.1-15,34.5-13.9,49.2-48.2C119.1,56,125.2,46.4,122.8,41.8z M58.5,102.1c13.4-32.2,13.4-32.7,44.2-44.2
	C91.4,87.7,90.1,88.5,58.5,102.1z"/>
<path d="M80,0C35.8,0,0,35.8,0,80s35.8,80,80,80s80-35.8,80-80S124.2,0,80,0z M80,144.2c-35.5,0-64.2-28.7-64.2-64.2
	S44.5,15.8,80,15.8s64.2,28.7,64.2,64.2S115.5,144.2,80,144.2z"/>
</svg>
