<?xml version="1.0" encoding="utf-8"?>
<!-- Generator: Adobe Illustrator 21.0.0, SVG Export Plug-In . SVG Version: 6.00 Build 0)  -->
<svg version="1.1" id="图层_1" xmlns="http://www.w3.org/2000/svg" xmlns:xlink="http://www.w3.org/1999/xlink" x="0px" y="0px"
	 viewBox="0 0 590 680" style="enable-background:new 0 0 590 680;" xml:space="preserve">
<style type="text/css">
	.st0{fill-rule:evenodd;clip-rule:evenodd;}
</style>
<path class="st0" d="M511.2,0H78.8C35.5,0,0,35.5,0,78.8v522.3C0,644.5,35.5,680,78.8,680h432.3c43.4,0,78.8-35.5,78.8-78.8V78.8
	C590,35.5,554.5,0,511.2,0z M535.7,592.2c0,17.5-14.3,31.8-31.8,31.8H86.2c-17.5,0-31.8-14.3-31.8-31.8V87.8
	C54.3,70.3,68.7,56,86.2,56h417.7c17.5,0,31.8,14.3,31.8,31.8V592.2z"/>
<path class="st0" d="M443.1,211H147.3c-12.6,0-23-10.3-23-23v-2c0-12.6,10.3-23,23-23h295.8c12.6,0,23,10.3,23,23v2
	C466.1,200.7,455.8,211,443.1,211z"/>
<path class="st0" d="M328.2,335.5H148.3c-13.2,0-24-10.8-24-24v0c0-13.2,10.8-24,24-24h179.8c13.2,0,24,10.8,24,24v0
	C352.2,324.7,341.4,335.5,328.2,335.5z"/>
<path class="st0" d="M226.6,459.9h-78.2c-13.2,0-24-10.8-24-24v0c0-13.2,10.8-24,24-24h78.2c13.2,0,24,10.8,24,24v0
	C250.6,449.1,239.8,459.9,226.6,459.9z"/>
</svg>
