<?xml version="1.0" encoding="utf-8"?>
<!-- Generator: Adobe Illustrator 21.0.0, SVG Export Plug-In . SVG Version: 6.00 Build 0)  -->
<svg version="1.1" id="图层_1" xmlns="http://www.w3.org/2000/svg" xmlns:xlink="http://www.w3.org/1999/xlink" x="0px" y="0px"
	 viewBox="0 0 782.3 650.4" style="enable-background:new 0 0 782.3 650.4;" xml:space="preserve">
<path d="M693.5,224.1c-18.9-62.8-57.9-119.3-110.3-159.4C528,22.4,462.1,0,392.5,0c-69.4,0-135.2,22.3-190.3,64.5
	c-52.3,40-91.3,96.3-110.2,158.9c-25.2,6.5-48,21.1-64.5,41.4C9.7,286.5,0,313.9,0,342v66.2c0,67.5,54.9,122.4,122.4,122.4h1.1
	c34.8,0,63.2-28.3,63.2-63.2V282.8c0-24.7-14.3-46.8-36.3-57.2C187.6,124,284.1,56.2,392.6,56.2c107.9,0,204.2,67.3,241.7,168.2
	c-23.1,9.8-38.7,32.8-38.7,58.3v184.8c0,15.9,6,31.1,16.7,42.7c-32.8,33.1-96.7,82.8-184.4,81.5l-0.4,0c-16,0-29.1,13-29.3,28.9
	c-0.1,7.8,2.8,15.2,8.3,20.8c5.5,5.6,12.8,8.8,20.7,8.9h4.1c57.7,0,112.7-16.9,163.6-50.2c38.8-25.4,65.5-54.1,78.9-70.4
	c29.2-3.3,56.2-17,76.2-38.9c20.9-22.7,32.3-52.1,32.3-82.9v-66.2C782.3,286.9,746,239.1,693.5,224.1z M723.7,341.9v66.2
	c0,35.2-28.6,63.8-63.8,63.8h-1.1c-2.5,0-4.5-2.1-4.5-4.5V282.7c0-2.5,2.1-4.6,4.6-4.6h1C695.1,278.1,723.7,306.7,723.7,341.9z
	 M128.1,282.7v184.7c0,2.5-2.1,4.5-4.5,4.5h-1.1c-35.2,0-63.8-28.6-63.8-63.8v-66.2c0-35.2,28.6-63.8,63.8-63.8h1
	C126,278.1,128.1,280.1,128.1,282.7z"/>
</svg>
