<?xml version="1.0" encoding="utf-8"?>
<!-- Generator: Adobe Illustrator 21.0.0, SVG Export Plug-In . SVG Version: 6.00 Build 0)  -->
<svg version="1.1" id="Arrow" xmlns="http://www.w3.org/2000/svg" xmlns:xlink="http://www.w3.org/1999/xlink" x="0px" y="0px"
	 viewBox="0 0 32 31.5" style="enable-background:new 0 0 32 31.5;" xml:space="preserve">
<path d="M19.2,5.6l-13,0l2.3-2.3c0.5-0.5,0.7-1.2,0.5-1.9C8.8,0.8,8.2,0.3,7.6,0.1c-0.7-0.2-1.4,0-1.9,0.5L1,5.3
	C0.3,5.9,0,6.8,0,7.7c0,0.9,0.4,1.8,1,2.4l4.7,4.8c0.7,0.7,2,0.7,2.8,0C8.8,14.5,9,14.1,9,13.5c0-0.5-0.2-1-0.6-1.4L5.9,9.6h13.3
	c4.9,0,8.9,4,8.9,9c0,5-4,9-8.9,9H9.1c-0.7,0-1.3,0.4-1.7,1c-0.3,0.6-0.3,1.4,0,2c0.3,0.6,1,1,1.7,1h10.1c7.1,0,12.8-5.8,12.8-12.9
	C32,11.4,26.2,5.6,19.2,5.6z"/>
</svg>
