<?xml version="1.0" encoding="utf-8"?>
<!-- Generator: Adobe Illustrator 21.0.0, SVG Export Plug-In . SVG Version: 6.00 Build 0)  -->
<svg version="1.1" id="Arrow" xmlns="http://www.w3.org/2000/svg" xmlns:xlink="http://www.w3.org/1999/xlink" x="0px" y="0px"
	 viewBox="0 0 449.1 494" style="enable-background:new 0 0 449.1 494;" xml:space="preserve">
<g>
	<path d="M70.5,396.9c-11.1,0-20.1,9-20.1,20.1s9,20.1,20.1,20.1h289c11.1,0,20.1-9,20.1-20.1s-9-20.1-20.1-20.1H70.5z"/>
	<path d="M429,50.4c-11.1,0-20.1,9-20.1,20.1v378.2c0,2.8-2.3,5.1-5.1,5.1H70.5c-17.6,0-30.3-15.5-30.3-36.8
		c0-21.2,12.8-36.5,30.3-36.5h263.7c25,0,45.3-20.3,45.3-45.3V45.3c0-25-20.3-45.3-45.3-45.3h-289C19.8,0,0,21.1,0,39.1v378.6
		C0,461.2,30.3,494,70.5,494h333.3c25,0,45.3-20.3,45.3-45.3V70.5C449.1,59.4,440.1,50.4,429,50.4z M40.2,45.3
		c0-2.8,2.3-5.1,5.1-5.1h289c2.8,0,5.1,2.3,5.1,5.1v289.9c0,2.8-2.3,5.1-5.1,5.1H70.5c-10.6,0-20.9,2.3-30.3,6.8V45.3z"/>
</g>
</svg>
