<?xml version="1.0" encoding="utf-8"?>
<!-- Generator: Adobe Illustrator 21.0.0, SVG Export Plug-In . SVG Version: 6.00 Build 0)  -->
<svg version="1.1" id="Communication" xmlns="http://www.w3.org/2000/svg" xmlns:xlink="http://www.w3.org/1999/xlink" x="0px"
	 y="0px" viewBox="0 0 33.2 33.2" style="enable-background:new 0 0 33.2 33.2;" xml:space="preserve">
<g>
	<path d="M31.2,15.6c-1.1,0-2,0.9-2,2v9.5c0,1-0.9,2.1-1.7,2.1H5.7c-0.8,0-1.7-1.1-1.7-2.1V5.2C4,4,5.5,3.9,5.7,3.9h8.9
		c1.1,0,2-0.9,2-2c0-1.1-0.9-2-2-2H5.7C2.4,0,0,2.2,0,5.2v21.9c0,3.2,2.7,6.1,5.7,6.1h21.9c3,0,5.6-2.8,5.6-6.1v-9.5
		C33.2,16.5,32.3,15.6,31.2,15.6z"/>
	<path d="M13,19.3c0,0.5,0.2,1,0.6,1.4c0.4,0.3,0.8,0.5,1.3,0.5c0.5,0,1.1-0.2,1.4-0.6L30.9,5.2c0.4-0.4,0.6-0.9,0.5-1.5
		s-0.3-1-0.7-1.4h0c-0.8-0.7-2-0.6-2.7,0.1L13.5,17.9C13.2,18.3,13,18.8,13,19.3z"/>
</g>
</svg>
