<?xml version="1.0" encoding="utf-8"?>
<!-- Generator: Adobe Illustrator 21.0.0, SVG Export Plug-In . SVG Version: 6.00 Build 0)  -->
<svg version="1.1" id="图层_1" xmlns="http://www.w3.org/2000/svg" xmlns:xlink="http://www.w3.org/1999/xlink" x="0px" y="0px"
	 viewBox="0 0 566.1 722.3" style="enable-background:new 0 0 566.1 722.3;" xml:space="preserve">
<g>
	<g>
		<defs>
			<path id="SVGID_1_" d="M240.9,716.4L21.3,402.7c-4.3-6.1-9.3-11.8-13.7-17.9c-9.7-13.5-10.4-31.5-1.1-45.3L37,297.8L240.9,6.4
				c6.8-9.4,22.5-7.7,31.1,0l28.9,26.2c8.6,7.8,8.8,17.2,0,28.2L89.6,347.4c-5.4,10.6-5.8,19.2,0,28.2l211.2,286.5
				c6.4,9.2,8.6,20.4,0,28.2l-28.9,26.1C263.4,724.3,249.5,724.3,240.9,716.4L240.9,716.4L240.9,716.4z"/>
		</defs>
		<use xlink:href="#SVGID_1_"  style="overflow:visible;"/>
		<clipPath id="SVGID_2_">
			<use xlink:href="#SVGID_1_"  style="overflow:visible;"/>
		</clipPath>
	</g>
	<g>
		<defs>
			<path id="SVGID_3_" d="M499.6,716.4L280.1,402.7c-4.3-6.1-9.3-11.8-13.7-17.9c-9.7-13.5-10.4-31.5-1.1-45.3l30.5-41.8L499.6,6.4
				c6.8-9.4,22.5-7.7,31.1,0l28.9,26.2c8.6,7.8,8.8,17.2,0,28.2L348.4,347.4c-5.4,10.6-5.8,19.2,0,28.2l211.2,286.5
				c6.4,9.2,8.6,20.4,0,28.2l-28.9,26.1C522.1,724.3,508.3,724.3,499.6,716.4L499.6,716.4L499.6,716.4z"/>
		</defs>
		<use xlink:href="#SVGID_3_"  style="overflow:visible;"/>
		<clipPath id="SVGID_4_">
			<use xlink:href="#SVGID_3_"  style="overflow:visible;"/>
		</clipPath>
	</g>
</g>
</svg>
