<?xml version="1.0" encoding="utf-8"?>
<!-- Generator: Adobe Illustrator 21.0.0, SVG Export Plug-In . SVG Version: 6.00 Build 0)  -->
<svg version="1.1" id="Communication" xmlns="http://www.w3.org/2000/svg" xmlns:xlink="http://www.w3.org/1999/xlink" x="0px"
	 y="0px" viewBox="0 0 27 33" style="enable-background:new 0 0 27 33;" xml:space="preserve">
<path d="M26.6,6.4l-6-6C20.3,0.2,19.9,0,19.5,0H4.1C1.9,0,0,1.9,0,4.1v24.7C0,31.1,1.9,33,4.1,33h18.7c2.3,0,4.1-1.9,4.1-4.1V7.5
	C27,7.1,26.8,6.7,26.6,6.4z M23.9,8H19V3.1L23.9,8z M22.9,30H4.1C3.5,30,3,29.5,3,28.9V4.1C3,3.5,3.5,3,4.1,3H16v6.5
	c0,0.8,0.7,1.5,1.5,1.5H24v17.9C24,29.5,23.5,30,22.9,30z"/>
</svg>
