<?xml version="1.0" encoding="utf-8"?>
<!-- Generator: Adobe Illustrator 21.0.0, SVG Export Plug-In . SVG Version: 6.00 Build 0)  -->
<svg version="1.1" id="图层_1" xmlns="http://www.w3.org/2000/svg" xmlns:xlink="http://www.w3.org/1999/xlink" x="0px" y="0px"
	 viewBox="0 0 987.8 843.2" style="enable-background:new 0 0 987.8 843.2;" xml:space="preserve">
<path d="M951.7,771l-60.3,0V72.2C891.4,32.4,859,0,819.2,0H638.4c-33.2,0-60.2,27-60.2,60.2l0,84.4H409.5
	c-39.8,0-72.2,32.4-72.2,72.2l0,72.3H156.6c-33.2,0-60.2,27-60.2,60.2l0,421.7H36.1C16.2,771,0,787.2,0,807.1s16.2,36.1,36.1,36.1
	h917.8c16.4,0,24.5-7.3,28.5-13.5c4.8-7.5,5.4-16,5.4-22.6C987.8,787.6,971.2,771,951.7,771z M819.2,72.3l0,698.8l-168.7,0l0-698.8
	L819.2,72.3L819.2,72.3z M578.3,216.8l0,554.2l-168.7,0l0-554.2L578.3,216.8L578.3,216.8z M337.3,361.4l0,409.7l-168.7,0l0-409.7
	L337.3,361.4L337.3,361.4z"/>
</svg>
