<?xml version="1.0" encoding="utf-8"?>
<!-- Generator: Adobe Illustrator 21.0.0, SVG Export Plug-In . SVG Version: 6.00 Build 0)  -->
<svg version="1.1" id="图层_1" xmlns="http://www.w3.org/2000/svg" xmlns:xlink="http://www.w3.org/1999/xlink" x="0px" y="0px"
	 viewBox="0 0 522.9 523" style="enable-background:new 0 0 522.9 523;" xml:space="preserve">
<path d="M340.9,261.5L506.5,95.9c21.9-21.9,21.9-57.5,0-79.4c-22-22-57.5-22-79.4,0L261.5,182.1L95.9,16.5c-22-22-57.5-22-79.4,0
	c-21.9,21.9-21.9,57.5,0,79.4L182,261.5L16.4,427.1c-21.9,22-21.9,57.5,0,79.5c21.9,21.9,57.4,21.9,79.4,0l165.6-165.6l165.6,165.6
	c21.9,21.9,57.4,21.9,79.4,0c21.9-22,21.9-57.5,0-79.5L340.9,261.5z"/>
</svg>
