<?xml version="1.0" encoding="utf-8"?>
<!-- Generator: Adobe Illustrator 21.0.0, SVG Export Plug-In . SVG Version: 6.00 Build 0)  -->
<svg version="1.1" id="图层_1" xmlns="http://www.w3.org/2000/svg" xmlns:xlink="http://www.w3.org/1999/xlink" x="0px" y="0px"
	 viewBox="0 0 709.1 601.7" style="enable-background:new 0 0 709.1 601.7;" xml:space="preserve">
<g>
	<path d="M345.7,5.8H33.5C15,5.8,0,22.1,0,42.1c0,20,15,36.3,33.5,36.3h312.1c18.4,0,33.5-16.2,33.6-36.3
		C379.2,22.1,364.2,5.8,345.7,5.8z"/>
	<path d="M345.7,264.6H33.5C15,264.6,0,280.9,0,300.9c0,20,15,36.3,33.5,36.3h312.1c18.4,0,33.5-16.2,33.6-36.3
		C379.2,280.9,364.2,264.6,345.7,264.6z"/>
	<path d="M345.7,523H33.5C15,523,0,539.2,0,559.2c0,20,15,36.3,33.5,36.3h312.1c18.5,0,33.6-16.3,33.6-36.3
		C379.2,539.2,364.2,523,345.7,523z"/>
	<path d="M698.5,410.8L698.5,410.8c-14.1-14.1-37.1-14.1-51.3,0l-66.7,66.7V36.3c0-20-16.3-36.3-36.3-36.3S508,16.3,508,36.3v529.2
		c0,20,16.3,36.3,36.3,36.3c8.5,0,16.8-3,23.3-8.4l0.1-0.1c0.4-0.3,1-0.9,130.7-131c6.9-6.8,10.7-16,10.7-25.7
		C709.1,426.8,705.4,417.6,698.5,410.8z"/>
</g>
</svg>
