<svg xmlns="http://www.w3.org/2000/svg" width="16" height="16" viewBox="0 0 16 16">
    <path fill="#212C42" fill-rule="evenodd" d="M6 2a1 1 0 1 1 0-2h2a1 1 0 1 1 0 2H6zm0 12a1 1 0 1 1 0 2H1a1 1 0 0 1-1-1V1a1 1 0 0 1 1-1h2a1 1 0 1 1 0 2H2v12h4zM5 6a1 1 0 1 1 0-2h4a1 1 0 1 1 0 2H5zm9-5v6a1 1 0 1 1-2 0V2h-1a1 1 0 1 1 0-2h2a1 1 0 0 1 1 1zm1.669 10.887l-3.871 3.79c-.221.215-.51.323-.8.323-.288 0-.575-.108-.797-.323l-1.87-1.79a1.089 1.089 0 0 1 0-1.563 1.146 1.146 0 0 1 1.597 0l1.07 1.008 3.074-3.007a1.144 1.144 0 0 1 1.597 0c.44.432.44 1.13 0 1.562z"/>
</svg>
