<?xml version="1.0" encoding="utf-8"?>
<!-- Generator: Adobe Illustrator 21.0.0, SVG Export Plug-In . SVG Version: 6.00 Build 0)  -->
<svg version="1.1" id="图层_1" xmlns="http://www.w3.org/2000/svg" xmlns:xlink="http://www.w3.org/1999/xlink" x="0px" y="0px"
	 viewBox="0 0 1160.8 174.9" style="enable-background:new 0 0 1160.8 174.9;" xml:space="preserve">
<g>
	<path id="XMLID_81_" d="M156.2,89.9c0,52.4-30.1,85-78,85c-48,0-78.1-32.6-78.1-85C0,37.5,30.1,4.8,78.1,4.8
		C126,4.8,156.2,37.5,156.2,89.9z M30.1,89.9c0,36.6,18.6,59.9,48,59.9c29.3,0,48-23.3,48-59.9c0-36.7-18.7-60-48-60
		C48.7,29.9,30.1,53.2,30.1,89.9z"/>
	<path d="M286.7,47.5v-9.9c0-9.8,4.2-14,14.4-14c3.4,0,6.6,0.3,9.1,0.9V3.8c-4.2-0.8-8.8-1.1-13.8-1.1c-26.8,0-37.8,10-37.8,33.6
		v11.2h-13h-4h-28.4v-9.9c0-9.8,4.2-14,14.4-14c3.4,0,6.6,0.3,9.1,0.9V3.8c-4.2-0.8-8.8-1.1-13.8-1.1c-26.8,0-37.8,10-37.8,33.6
		v11.2h-17v22h17v102.7h28.4V69.5h28.1h4h13v102.7H287V69.5h23.3v-22H286.7z"/>
	<path id="XMLID_74_" d="M435.1,135.1c-3.7,23-25.8,38.9-54.9,38.9c-36.8,0-59.7-24.4-59.7-63.7c0-39.2,22.9-64.6,58.6-64.6
		c34.9,0,57,23.8,57,61.6v9.4H349v1.7c0,20.1,12.8,33.4,31.8,33.4c13.7,0,24.3-6.5,27.6-16.8H435.1z M349.2,97.8h59.1
		c-0.6-18-12.2-29.9-29.1-29.9C362.5,67.9,350.4,80,349.2,97.8z"/>
	<path id="XMLID_72_" d="M455.3,47.5h27.3v21.7h0.6c4-14.6,15.2-23,29.9-23c3.8,0,7,0.5,9.1,1.1V73c-2.4-0.9-6.8-1.6-11.7-1.6
		c-16.7,0-26.7,10.8-26.7,28.4v72.3h-28.4V47.5z"/>
	<path id="XMLID_69_" d="M627.9,7.7c32.8,0,55.5,22.3,55.5,55.3s-23.4,55.3-56.8,55.3h-35.8v54.6h-29.5V7.7H627.9z M590.8,94.5H620
		c21.2,0,33.4-11.5,33.4-31.5c0-19.8-12.1-31.2-33.3-31.2h-29.3V94.5z"/>
	<path id="XMLID_67_" d="M703.5,0H732v172.9h-28.5V0z"/>
	<path id="XMLID_65_" d="M867.5,172.9h-27.4v-14.5h-0.7c-7.6,10.7-21.9,16.1-38.4,16.1c-27.3,0-44.3-17.6-44.3-46.5V47.8h28.5v74.6
		c0,18.2,8.8,28.1,25.7,28.1c17.4,0,28.1-12.3,28.1-30.8V47.8h28.5V172.9z"/>
	<path id="XMLID_63_" d="M939.9,46c28.9,0,49,15.6,49.6,38.3h-26.6c-0.9-10.5-10-17.2-23.6-17.2c-13.3,0-22,6.1-22,15.2
		c0,7,5.8,11.8,18.2,14.7l22,5c25.2,5.8,34.8,15.3,34.8,33.8c0,23.2-21.8,38.9-53.1,38.9c-30.7,0-51-15.5-52.8-38.7h28.1
		c1.7,11.3,11,17.6,25.9,17.6c14.5,0,23.6-5.8,23.6-15.1c0-7.3-4.6-11.2-17.1-14.2l-22.7-5.5c-22.9-5.4-34.6-17.2-34.6-34.9
		C889.6,61.3,909.7,46,939.9,46z"/>
	<path id="XMLID_6_" d="M1122.3,34.1c-6.2-12.9-19.3-21.7-34.6-21.7c-20.4,0-37.2,15.9-38.5,35.9c-15,4.3-26,17.4-26,32.9
		c0,18.3,15.3,33.3,34.4,34.4c0,0,63.9,0,64.5,0c21.3,0,38.7-18.3,38.7-40.8C1160.8,53,1143.8,35.2,1122.3,34.1z"/>
	<g id="XMLID_52_">
		<path id="XMLID_60_" d="M1024.3,168c0-2.2,1.7-3.9,3.9-3.9c2.2,0,3.9,1.7,3.9,3.9c0,2.2-1.7,3.9-3.9,3.9
			C1026,171.9,1024.3,170.2,1024.3,168z"/>
		<path id="XMLID_58_" d="M1062.3,146.7c-0.8-3.9-4-7-9.6-7c-6.4,0-10.8,5.3-10.8,13.5c0,8.4,4.4,13.5,10.9,13.5
			c5.1,0,8.5-2.4,9.6-6.8h5.8c-1,7.2-7,12.1-15.4,12.1c-10.1,0-16.9-7.2-16.9-18.7c0-11.3,6.7-18.7,16.8-18.7
			c9.1,0,14.7,5.9,15.4,12.3H1062.3z"/>
		<path id="XMLID_55_" d="M1070.7,153.1c0-11.4,6.6-18.7,17-18.7c10.3,0,17,7.3,17,18.7c0,11.4-6.6,18.7-17,18.7
			C1077.3,171.9,1070.7,164.6,1070.7,153.1z M1098.6,153.1c0-8.5-4.1-13.5-10.9-13.5s-10.9,5-10.9,13.5s4.1,13.5,10.9,13.5
			C1094.5,166.6,1098.6,161.6,1098.6,153.1z"/>
		<path id="XMLID_53_" d="M1109.4,134.7h5.6v6h0.1c1.7-3.9,5.7-6.3,10.4-6.3c5,0,8.7,2.5,10.3,7h0.1c2.1-4.4,6.4-7,11.6-7
			c7.3,0,12,4.7,12,12v25.1h-5.9v-23.8c0-5.1-2.8-8.1-7.8-8.1c-4.9,0-8.4,3.7-8.4,8.7v23.1h-5.9v-24.5c0-4.4-3-7.4-7.6-7.4
			c-4.9,0-8.5,3.9-8.5,9v22.8h-5.9V134.7z"/>
	</g>
</g>
</svg>
