<svg xmlns="http://www.w3.org/2000/svg" width="16" height="16" viewBox="0 0 16 16">
    <g fill="none" fill-rule="evenodd">
        <path d="M0 0h16v16H0z"/>
        <path fill="#212C42" d="M3.014 14.004c-.023-.021-.012-.041-.005-.053C4.15 11.992 5.83 11 8 11c2.18 0 3.86.993 4.981 3l-9.966.004zM8 2c1.655 0 3 1.345 3 3 0 1.654-1.345 3-3 3-1.654 0-3-1.346-3-3 0-1.655 1.346-3 3-3zm6.722 10.95c-.95-1.643-2.372-2.98-4.322-3.589C11.942 8.509 13 6.886 13 5A5 5 0 1 0 3 5c0 1.888 1.06 3.513 2.606 4.363-1.938.61-3.368 1.94-4.324 3.581C.493 14.298 1.452 16 3.02 16h9.961c1.564 0 2.524-1.696 1.741-3.05z"/>
    </g>
</svg>
