<svg width="16" fill="#D0021B" height="16" viewBox="0 0 16 16" version="1.1" xmlns="http://www.w3.org/2000/svg" xmlns:xlink="http://www.w3.org/1999/xlink">
<g id="not-allowPage 1">
<path fill-rule="evenodd" clip-rule="evenodd" d="M 2 7.99999C 2 6.70599 2.416 5.50999 3.115 4.52899L 11.471 12.885C 10.49 13.584 9.294 14 8 14C 4.691 14 2 11.309 2 7.99999L 2 7.99999ZM 14 8C 14 9.294 13.584 10.49 12.885 11.471L 4.52899 3.115C 5.50999 2.416 6.70599 2 7.99999 2C 11.309 2 14 4.691 14 8L 14 8ZM 8 0C 3.589 0 0 3.589 0 8C 0 12.411 3.589 16 8 16C 12.411 16 16 12.411 16 8C 16 3.589 12.411 0 8 0L 8 0Z" />
</g>


</svg>

