<svg xmlns="http://www.w3.org/2000/svg" width="16" height="17" viewBox="0 0 16 17">
    <path fill="#212C42" fill-rule="evenodd" d="M2.015 15.004c-.024-.02-.012-.04-.005-.053 1.14-1.959 2.819-2.95 4.99-2.95 2.179 0 3.858.992 4.98 3l-9.965.003zm7.409-4.634c1.937.613 3.352 1.944 4.298 3.58.782 1.354-.177 3.05-1.741 3.05H2.02C.453 17-.506 15.298.282 13.944c.956-1.64 2.386-2.97 4.324-3.58h.003C3.063 9.511 1.999 7.885 1.999 6a5.006 5.006 0 0 1 6.176-4.86.998.998 0 0 1 .737 1.205.998.998 0 0 1-1.206.738A3.003 3.003 0 0 0 4 6c0 1.654 1.346 3 3 3 .702 0 1.358-.234 1.898-.677a1 1 0 1 1 1.267 1.548c-.232.19-.481.355-.741.5zM14.359 4l1.36 1.36a.964.964 0 0 1 0 1.36.966.966 0 0 1-1.36 0L13 5.36l-1.36 1.36a.966.966 0 0 1-1.36 0 .964.964 0 0 1 0-1.36L11.64 4l-1.36-1.36a.964.964 0 0 1 0-1.36.964.964 0 0 1 1.36 0L13 2.64l1.36-1.36a.964.964 0 0 1 1.36 0 .964.964 0 0 1 0 1.36L14.36 4z"/>
</svg>
