<svg width="15" height="16" viewBox="0 0 15 16" version="1.1" xmlns="http://www.w3.org/2000/svg" xmlns:xlink="http://www.w3.org/1999/xlink" fill="white">
    <g id="notificationCanvas">
        <g id="notificationFill 1.1">
            <path fill-rule="evenodd" clip-rule="evenodd" d="M 8.00007 13.055C 8.00007 13.347 7.84207 13.571 7.73807 13.677C 7.54507 13.874 7.27707 13.999 7.02107 13.999C 6.59807 14 5.99807 13.621 5.99707 13L 8.00007 13L 8.00007 13.055ZM 7 4C 9.206 4 11 5.794 11 8L 3 8C 3 5.794 4.794 4 7 4ZM 2.89516 10.448C 2.96416 10.309 3.00016 10.156 3.00016 10L 11.0002 10C 11.0002 10.156 11.0362 10.309 11.1052 10.448L 11.3822 11L 9.00216 11L 8.99716 11L 8.99216 11L 5.00216 11L 4.99716 11L 4.99216 11L 2.61816 11L 2.89516 10.448ZM 13.814 11.393L 13 9.764L 13 8C 13 5.024 10.825 2.554 7.979 2.086C 7.981 2.06 8 2.037 8 2.011L 8 0.99C 8 0.444 7.547 0 7 0C 6.453 0 6 0.444 6 0.99L 6 2.011C 6 2.037 6.019 2.06 6.021 2.086C 3.175 2.554 1 5.024 1 8L 1 9.764L 0.105 11.553C 0.095 11.574 0.092 11.597 0.083 11.618C 0.079 11.625 0.078 11.634 0.074 11.642C 0.032 11.751 0.008 11.866 0.006 11.982C 0.006 11.992 0 12 0 12.011C 0 12.015 0.002 12.019 0.003 12.023C 0.005 12.133 0.029 12.241 0.067 12.345C 0.081 12.383 0.099 12.418 0.117 12.453C 0.129 12.477 0.135 12.503 0.149 12.526C 0.176 12.569 0.211 12.603 0.243 12.641C 0.268 12.67 0.286 12.701 0.313 12.727C 0.387 12.795 0.471 12.848 0.56 12.892C 0.594 12.909 0.629 12.922 0.665 12.935C 0.763 12.97 0.864 12.993 0.971 12.996C 0.978 12.996 0.983 13 0.989 13L 1 13L 3.997 13C 3.998 14.793 5.548 16 6.965 16L 6.966 16L 7.046 16C 7.812 16 8.6 15.658 9.169 15.075C 9.745 14.484 10.039 13.728 9.997 13L 13 13L 13.011 13L 13.02 13C 13.572 13 14.02 12.553 14.02 12C 14.02 11.772 13.943 11.561 13.814 11.393Z" />
        </g>
    </g>
</svg>

