<svg width="16" fill="#212C42" height="16" viewBox="0 0 16 16" version="1.1" xmlns="http://www.w3.org/2000/svg" xmlns:xlink="http://www.w3.org/1999/xlink">
<g id="Combined Shape">
<path fill-rule="evenodd" clip-rule="evenodd" d="M 13 14L 13 6L 3 6L 3 14L 13 14ZM 6 4C 6 2.82199 6.82199 2 8 2C 9.17801 2 10 2.82199 10 4L 6 4ZM 15 4L 13.222 4L 13 4L 12 4C 12 1.72 10.28 0 8 0C 5.72 0 4 1.72 4 4L 3 4L 2.77802 4L 1 4C 0.446991 4 0 4.448 0 5C 0 5.552 0.446991 6 1 6L 1 14C 1 15.104 1.896 16 3 16L 13 16C 14.104 16 15 15.104 15 14L 15 6C 15.553 6 16 5.552 16 5C 16 4.448 15.553 4 15 4ZM 6 13C 6.55301 13 7 12.552 7 12L 7 8C 7 7.448 6.55301 7 6 7C 5.44699 7 5 7.448 5 8L 5 12C 5 12.552 5.44699 13 6 13ZM 11 12C 11 12.552 10.553 13 10 13C 9.44699 13 9 12.552 9 12L 9 8C 9 7.448 9.44699 7 10 7C 10.553 7 11 7.448 11 8L 11 12Z" />
</g>
</svg>

