<svg width="14" height="14" viewBox="0 0 14 14" fill="white" xmlns="http://www.w3.org/2000/svg">
    <path fill-rule="evenodd" clip-rule="evenodd" d="M3.25082 2.03125C1.64682 3.64625 1.65082 6.25425 3.25082 7.85325L6.12682 10.7302C6.90382 11.5072 7.93782 11.9352 9.03582 11.9352C10.1228 11.9352 11.1468 11.5162 11.9208 10.7562L10.5118 9.29125L9.77082 10.0092C8.99582 10.7832 7.64682 10.7842 6.87082 10.0092L3.97182 7.11025C3.17182 6.31025 3.17182 5.00925 3.97182 4.21025L4.68882 3.49225L3.25082 2.03125ZM9.03581 13.9851C7.38981 13.9851 5.84181 13.3441 4.67781 12.1791L1.80081 9.30212C-0.586192 6.91512 -0.601192 3.03013 1.76181 0.623125C1.77381 0.608125 1.78881 0.593125 1.80081 0.581125C2.57581 -0.193875 3.92781 -0.193875 4.70081 0.582125L6.14981 2.03113C6.53781 2.41813 6.75081 2.93313 6.75081 3.48012C6.75081 4.02912 6.53781 4.54413 6.14981 4.93013L5.42081 5.65912L8.31981 8.55912L9.03881 7.84212C9.81781 7.06112 11.1798 7.06112 11.9608 7.84113L13.3988 9.28012C13.7868 9.66712 13.9998 10.1821 13.9998 10.7301C13.9998 11.2781 13.7868 11.7921 13.3988 12.1791C13.3838 12.1961 13.3678 12.2111 13.3518 12.2251C12.1908 13.3611 10.6608 13.9851 9.03581 13.9851Z" />
</svg>
