<svg width="16" height="16"  fill="#212C42" viewBox="0 0 16 16" version="1.1" xmlns="http://www.w3.org/2000/svg" xmlns:xlink="http://www.w3.org/1999/xlink">
<g id="print-flame">
<g id="Fill 3">
<path fill-rule="evenodd" clip-rule="evenodd" d="M 1.50025 2.50025C 1.24425 2.50025 0.98825 2.40225 0.79325 2.20725L 0.29325 1.70725C -0.09775 1.31625 -0.09775 0.68425 0.29325 0.29325C 0.68425 -0.09775 1.31625 -0.09775 1.70725 0.29325L 2.20725 0.79325C 2.59825 1.18425 2.59825 1.81625 2.20725 2.20725C 2.01225 2.40225 1.75625 2.50025 1.50025 2.50025" transform="translate(0 9.99976)"/>
</g>
<g id="Fill 1">
<path fill-rule="evenodd" clip-rule="evenodd" d="M 4 10C 2.897 10 2 9.103 2 8C 2 7.663 2.096 7.329 2.283 7.006C 2.328 6.93 2.367 6.851 2.4 6.771L 4 4L 5.6 6.771C 5.633 6.851 5.672 6.93 5.717 7.006C 5.904 7.329 6 7.663 6 8C 6 9.103 5.103 10 4 10L 4 10ZM 8 8C 8 7.268 7.789 6.591 7.445 6L 7.464 6L 4 0L 0.535 6L 0.555 6C 0.211 6.591 0 7.268 0 8C 0 10.209 1.791 12 4 12C 6.209 12 8 10.209 8 8L 8 8Z" transform="translate(4.00024 1)"/>
</g>
<g id="Fill 6">
<path fill-rule="evenodd" clip-rule="evenodd" d="M 0 1.50025C 0 1.24425 0.098 0.98825 0.293 0.79325L 0.793 0.29325C 1.184 -0.09775 1.816 -0.09775 2.207 0.29325C 2.598 0.68425 2.598 1.31625 2.207 1.70725L 1.707 2.20725C 1.316 2.59825 0.684 2.59825 0.293 2.20725C 0.098 2.01225 0 1.75625 0 1.50025" transform="translate(13.5002 9.99976)"/>
</g>
<g id="Fill 9">
<path fill-rule="evenodd" clip-rule="evenodd" d="M 15 2L 1 2C 0.447 2 0 1.553 0 1C 0 0.447 0.447 0 1 0L 15 0C 15.553 0 16 0.447 16 1C 16 1.553 15.553 2 15 2" transform="translate(0.000244141 14)"/>
</g>
</g>


</svg>

