<svg xmlns="http://www.w3.org/2000/svg" width="16" height="16" viewBox="0 0 16 16">
    <g fill="none" fill-rule="evenodd">
        <path d="M0 0h16v16H0z"/>
        <path fill="#212C42" d="M16 1.364V15a1 1 0 0 1-1 1H1a1 1 0 0 1-1-1V1.269l.021-.012A.969.969 0 0 1 .293.664a1.006 1.006 0 0 1 1.414 0l.867.859c.346.344.807.519 1.297.491.488-.027.926-.25 1.233-.629A3.696 3.696 0 0 1 8 0c1.13 0 2.184.501 2.889 1.375a1.69 1.69 0 0 0 1.24.639c.486.032.951-.147 1.297-.491l.867-.859a1.006 1.006 0 0 1 1.414 0c.151.15.227.339.26.533L16 1.196v.168zM2 14h12V3.529a3.692 3.692 0 0 1-1.982.465 3.711 3.711 0 0 1-2.684-1.372c-.662-.819-2.014-.811-2.662-.008A3.715 3.715 0 0 1 3.777 4 3.716 3.716 0 0 1 2 3.529V14zm9-8a1 1 0 1 1 0 2H5a1 1 0 1 1 0-2h6zm0 4a1 1 0 1 1 0 2H5a1 1 0 1 1 0-2h6z"/>
    </g>
</svg>
