<svg xmlns="http://www.w3.org/2000/svg" fill="#212C42" width="16" height="16" viewBox="0 0 16 16">
    <path  d="M15.992 2.962c0 .013.008.024.008.038 0 .055-.023.103-.031.155-.01.054-.002.108-.02.16l-2 6a1.002 1.002 0 0 1-.95.685H4c-.417 0-.79-.26-.937-.65l-3-8A1.001 1.001 0 0 1 .65.064a1.002 1.002 0 0 1 1.287.586l.507 1.35.75 2 1.5 4h7.586l1.22-3.662.118-.337H9a1 1 0 1 1 0-2h6c.055 0 .1.022.152.03.055.006.11.003.164.02.013.005.022.016.033.02.069.026.125.067.186.106.05.033.103.058.145.099.047.043.08.099.117.15.037.053.079.1.106.158.025.052.03.11.047.168.019.07.039.137.042.21zM3 11.999A2 2 0 1 1 3 16.002 2 2 0 0 1 3 11.999zm9 0a2 2 0 1 1-.002 4.002A2 2 0 0 1 12 11.999zm-2-6A1 1 0 1 1 8 6a1 1 0 0 1 2 0zM6 7A1 1 0 1 1 6 5a1 1 0 0 1 0 2zm0-3A1 1 0 1 1 6 2a1 1 0 0 1 0 2z"/>
</svg>
