<svg width="16" height="16" viewBox="0 0 16 16" version="1.1" xmlns="http://www.w3.org/2000/svg" xmlns:xlink="http://www.w3.org/1999/xlink" fill="#212C42">
<g id="starCanvas">
<g id="star-g-01">
<g id="staricon/dark/order status/active">
<g id="staractive">
<g id="starPage 1">
<path fill-rule="evenodd" clip-rule="evenodd" d="M 7.99989 9.68879C 8.20989 9.68879 8.42089 9.75578 8.59889 9.89077L 10.3539 11.2224L 9.72589 9.32848C 9.57989 8.88798 9.74789 8.40283 10.1319 8.15112L 11.6009 7.19197L 9.65189 7.19197C 9.21889 7.19197 8.83489 6.9088 8.70089 6.49063L 7.99989 4.29932L 7.29889 6.49063C 7.16489 6.9088 6.78089 7.19197 6.34789 7.19197L 4.37689 7.19197L 5.87089 8.17548C 6.25689 8.42922 6.42189 8.91843 6.27089 9.35994L 5.65289 11.1615L 7.41689 9.87859C 7.59189 9.75172 7.79589 9.68879 7.99989 9.68879L 7.99989 9.68879ZM 12.3259 14.9992C 12.1159 14.9992 11.9049 14.9322 11.7279 14.7982L 7.9869 11.9614L 4.2559 14.6744C 3.9019 14.9322 3.4239 14.9281 3.0749 14.6612C 2.7259 14.3973 2.5859 13.9335 2.7289 13.5153L 4.1239 9.44529L 0.455904 7.02763C 0.0839045 6.78303 -0.0840955 6.31919 0.0409045 5.88884C 0.166904 5.45748 0.556905 5.16212 0.999905 5.16212L 5.6209 5.16212L 7.0489 0.701342C 7.1829 0.282161 7.5669 0 7.9999 0C 8.4329 0 8.8169 0.282161 8.9509 0.701342L 10.3789 5.16212L 14.9999 5.16212C 15.4429 5.16212 15.8339 5.45849 15.9589 5.88986C 16.0839 6.32223 15.9149 6.78607 15.5419 7.02966L 11.8699 9.43006L 13.2739 13.6604C 13.4139 14.0817 13.2669 14.5465 12.9129 14.8063C 12.7379 14.9352 12.5319 14.9992 12.3259 14.9992L 12.3259 14.9992Z" transform="translate(0 1.00085)" />
</g>
</g>
</g>
</g>
</g>
</svg>

