<svg width="16" height="16" fill="#212C42" viewBox="0 0 16 16" version="1.1" xmlns="http://www.w3.org/2000/svg" xmlns:xlink="http://www.w3.org/1999/xlink">

<g id="truckPage 1">
<mask id="truckmask0"  maskUnits="userSpaceOnUse" x="0" y="0" width="16" height="16">
<g id="truckClip 2">
<path fill-rule="evenodd" clip-rule="evenodd" d="M 8 16L 16 16L 16 0L 0 0L 0 8L 0 16L 8 16Z" fill="white"/>
</g>
</mask>
<g mask="url(#truckmask0)">
<g id="truckFill 1">
<path fill-rule="evenodd" clip-rule="evenodd" d="M 11 14C 10.448 14 10 13.551 10 13C 10 12.449 10.448 12 11 12C 11.552 12 12 12.449 12 13C 12 13.551 11.552 14 11 14L 11 14ZM 3 14C 2.448 14 2 13.551 2 13C 2 12.449 2.448 12 3 12C 3.552 12 4 12.449 4 13C 4 13.551 3.552 14 3 14L 3 14ZM 10 6L 10 3L 12.323 3L 13.523 6L 10 6ZM 15.981 6.81C 15.969 6.739 15.947 6.672 15.92 6.608L 13.929 1.628C 13.776 1.249 13.409 1 13 1L 10 1C 10 0.448 9.553 0 9 0L 1 0C 0.447 0 0 0.448 0 1L 0 8C 0 8.552 0.447 9 1 9C 1.553 9 2 8.552 2 8L 2 2L 8 2L 8 3L 8 7C 8 7.552 8.447 8 9 8L 14 8L 14 12C 13.938 12 13.885 12.024 13.826 12.035C 13.423 10.855 12.314 10 11 10C 9.698 10 8.599 10.838 8.185 12L 6 12C 5.938 12 5.885 12.024 5.826 12.035C 5.423 10.855 4.314 10 3 10C 1.346 10 0 11.346 0 13C 0 14.654 1.346 16 3 16C 4.314 16 5.423 15.145 5.826 13.965C 5.885 13.976 5.938 14 6 14L 8.185 14C 8.599 15.162 9.698 16 11 16C 12.314 16 13.423 15.145 13.826 13.965C 13.885 13.976 13.938 14 14 14L 15 14C 15.553 14 16 13.552 16 13L 16 7.022C 16.002 6.952 15.996 6.881 15.981 6.81L 15.981 6.81Z" />
</g>
</g>
</g>

</svg>

