<svg width="14" height="16" viewBox="0 0 14 16" version="1.1" xmlns="http://www.w3.org/2000/svg" xmlns:xlink="http://www.w3.org/1999/xlink">
<g id="Canvas" fill="none">
<g id="&#209;&#131;&#208;&#186;&#208;&#180;">
<g id="Fill 13">
<path fill-rule="evenodd" clip-rule="evenodd" d="M 13 0C 13.553 0 14 0.447 14 1L 14 15C 14 15.553 13.553 16 13 16L 1 16C 0.447 16 0 15.553 0 15L 0 1C 0 0.447 0.447 0 1 0L 3 0C 3.553 0 4 0.447 4 1C 4 1.553 3.553 2 3 2L 2 2L 2 14L 12 14L 12 2L 11 2C 10.447 2 10 1.553 10 1C 10 0.447 10.447 0 11 0L 13 0ZM 6 2C 5.447 2 5 1.553 5 1C 5 0.447 5.447 0 6 0L 8 0C 8.553 0 9 0.447 9 1C 9 1.553 8.553 2 8 2L 6 2Z" fill="#212C42"/>
</g>
<g id="Group">
<g id="Fill 46">
<path fill-rule="evenodd" clip-rule="evenodd" d="M 5 0C 5.553 0 6 0.447 6 1C 6 1.553 5.553 2 5 2L 1 2C 0.447 2 0 1.553 0 1C 0 0.447 0.447 0 1 0L 5 0Z" transform="translate(4 6.69312)" fill="#212C42"/>
</g>
<g id="Fill 48">
<path fill-rule="evenodd" clip-rule="evenodd" d="M 5 0C 5.553 0 6 0.447 6 1C 6 1.553 5.553 2 5 2L 1 2C 0.447 2 0 1.553 0 1C 0 0.447 0.447 0 1 0L 5 0Z" transform="matrix(0 -1 1 0 6 10.6105)" fill="#212C42"/>
</g>
</g>
</g>
</g>
</svg>

